<svg version="1.1" id="Capa_1" xmlns="http://www.w3.org/2000/svg" x="0" y="0" viewBox="0 0 50 50" xml:space="preserve"><style>.st0{fill:#f0f0f0}.st1{fill:#338af3}.st2{fill:#ffda44}.st3{fill:#d80027}.st4{fill:#0052b4}.st5{fill:#6da544}</style><g id="XMLID_2364_"><path id="XMLID_2679_" class="st0" d="M151.3 24.8c0 12.1-9.8 21.9-21.9 21.9-12.1 0-21.9-9.8-21.9-21.9 0-12.1 9.8-21.9 21.9-21.9 12.1 0 21.9 9.8 21.9 21.9zm0 0"/><path id="XMLID_2676_" class="st1" d="M129.4 2.9c-8.7 0-16.2 5-19.7 12.4h39.4c-3.6-7.4-11-12.4-19.7-12.4zm0 0"/><path id="XMLID_2665_" class="st1" d="M129.4 46.6c8.7 0 16.2-5 19.7-12.4h-39.4c3.5 7.4 11 12.4 19.7 12.4zm0 0"/><path id="XMLID_2370_" class="st2" d="M135.9 24.8l-2.7 1.3 1.4 2.6-2.9-.6-.4 2.9-2-2.2-2 2.2-.3-3-2.9.6 1.4-2.6-2.7-1.3 2.7-1.3-1.4-2.6 2.9.6.4-2.9 2 2.2 2-2.2.4 2.9 2.9-.6-1.4 2.6 2.6 1.4zm0 0"/></g><g id="XMLID_2134_"><path id="XMLID_2342_" class="st0" d="M46.9 25c0 12.1-9.8 21.9-21.9 21.9-12.1 0-21.9-9.8-21.9-21.9C3.1 12.9 12.9 3.1 25 3.1c12.1 0 21.9 9.8 21.9 21.9zm0 0"/><path id="XMLID_2320_" class="st3" d="M46.9 25c0 12.1-9.8 21.9-21.9 21.9-12.1 0-21.9-9.8-21.9-21.9 0-12.1 21.9 0 21.9 0h21.9zm0 0"/><path id="XMLID_2317_" class="st4" d="M3.1 25C3.1 12.9 12.9 3.1 25 3.1V25H3.1zm0 0"/><path id="XMLID_2314_" class="st0" d="M16.1 10.7l1.4 4.4h4.6l-3.7 2.7 1.4 4.4-3.7-2.7-3.7 2.7 1.4-4.4-3.7-2.7h4.6l1.4-4.4zm0 0"/></g><g id="XMLID_1772_"><path id="XMLID_1779_" class="st2" d="M367.8 24.8c0-12.1 9.8-21.9 21.9-21.9 12.1 0 21.9 9.8 21.9 21.9l-21.9 1.9-21.9-1.9zm0 0"/><path id="XMLID_1776_" class="st3" d="M370.8 35.7c3.8 6.5 10.9 10.9 18.9 10.9 8.1 0 15.2-4.4 18.9-10.9l-18.9-1.4-18.9 1.4zm0 0"/><path id="XMLID_1773_" class="st4" d="M408.7 35.7c1.9-3.2 2.9-7 2.9-10.9h-43.7c0 4 1.1 7.7 2.9 10.9h37.9zm0 0"/></g><g id="XMLID_1751_"><path id="XMLID_1767_" class="st2" d="M263.5 25c0-12.1 9.8-21.9 21.9-21.9 12.1 0 21.9 9.8 21.9 21.9l-21.9 1.9-21.9-1.9zm0 0"/><path id="XMLID_1764_" class="st3" d="M266.4 35.9c3.8 6.5 10.9 10.9 18.9 10.9 8.1 0 15.2-4.4 18.9-10.9l-18.9-1.4-18.9 1.4zm0 0"/><path id="XMLID_1761_" class="st4" d="M304.3 35.9c1.9-3.2 2.9-7 2.9-10.9h-43.7c0 4 1.1 7.7 2.9 10.9h37.9zm0 0"/><path id="XMLID_1758_" class="st2" d="M292.9 25c0 4.2-3.4 7.6-7.6 7.6-4.2 0-7.6-3.4-7.6-7.6 0-4.2 3.4-7.6 7.6-7.6 4.2 0 7.6 3.4 7.6 7.6zm0 0"/><path id="XMLID_1755_" class="st1" d="M285.3 29.8c-2.6 0-4.8-2.1-4.8-4.8v-2.9c0-2.6 2.1-4.8 4.8-4.8 2.6 0 4.8 2.1 4.8 4.8V25c0 2.6-2.1 4.8-4.8 4.8zm0 0"/><path id="XMLID_1752_" d="M292.9 13.6h-5.7c0-1.1-.9-1.9-1.9-1.9-1.1 0-1.9.9-1.9 1.9h-5.7c0 1.1.9 1.9 2 1.9h-.1c0 1.1.9 1.9 1.9 1.9 0 1.1.9 1.9 1.9 1.9h3.8c1.1 0 1.9-.9 1.9-1.9 1.1 0 1.9-.9 1.9-1.9 1 0 1.9-.9 1.9-1.9zm0 0"/></g><g id="XMLID_1597_"><path id="XMLID_1741_" class="st0" d="M202.9 24.8c0 12.1-9.8 21.9-21.9 21.9-12.1 0-21.9-9.8-21.9-21.9 0-12.1 9.8-21.9 21.9-21.9 12.1 0 21.9 9.8 21.9 21.9zm0 0"/><path id="XMLID_1738_" class="st1" d="M181.1 19h21.1c-.5-2-1.4-4-2.5-5.7H181V19zm0 0"/><path id="XMLID_1735_" class="st1" d="M167.4 41.9h27.2c2-1.6 3.7-3.5 5-5.7h-37.3c1.4 2.1 3.2 4.1 5.1 5.7zm0 0"/><path id="XMLID_1732_" class="st1" d="M181.1 2.9v4.8h13.6c-3.8-3-8.5-4.8-13.6-4.8zm0 0"/><path id="XMLID_1604_" class="st1" d="M181.1 19h21.1c-.5-2-1.4-4-2.5-5.7H181V19zm0 0"/><path id="XMLID_1601_" class="st1" d="M159.2 24.8c0 2 .3 3.9.8 5.7h42.2c.5-1.8.8-3.7.8-5.7h-43.8zm0 0"/><path id="XMLID_1598_" class="st2" d="M178.2 15.7l-2.7 1.3 1.4 2.6-2.9-.6-.4 2.9-2-2.2-2 2.2-.4-2.9-2.9.6 1.4-2.6-2.7-1.3 2.7-1.3-1.4-2.6 2.9.6.4-2.9 2 2.2 2-2.2.4 2.9 2.9-.6-1.4 2.6 2.7 1.3zm0 0"/></g><g id="XMLID_1511_"><path id="XMLID_1594_" class="st4" d="M252.9 34.3c1.4-2.9 2.2-6.1 2.2-9.5 0-3.4-.8-6.6-2.2-9.5l-19.7-1.9-19.7 1.9c-1.4 2.9-2.2 6.1-2.2 9.5 0 3.4.8 6.6 2.2 9.5l19.7 1.9 19.7-1.9zm0 0"/><path id="XMLID_1541_" class="st3" d="M233.2 46.6c8.7 0 16.2-5 19.7-12.4h-39.4c3.6 7.4 11.1 12.4 19.7 12.4zm0 0"/><path id="XMLID_1538_" class="st0" d="M249.2 29l-1.2.9.5 1.4-1.2-.8-1.2.9.4-1.4-1.2-.8 1.5-.1.4-1.4.5 1.4 1.5-.1zm0 0"/><path id="XMLID_1535_" class="st0" d="M246.3 23.9l-.8 1.2.9 1.1-1.4-.4-.8 1.2-.1-1.5-1.4-.4 1.4-.5-.1-1.5.9 1.1 1.4-.3zm0 0"/><path id="XMLID_1532_" class="st0" d="M241.7 20.1l-.3 1.4 1.3.7-1.5.2-.3 1.4-.6-1.3-1.5.2 1.1-1-.6-1.3 1.3.7 1.1-1zm0 0"/><path id="XMLID_1529_" class="st0" d="M236.2 18.1l.2 1.5 1.4.3-1.3.6.2 1.5-1-1.1-1.3.6.7-1.3-1-1.1 1.4.3.7-1.3zm0 0"/><path id="XMLID_1526_" class="st0" d="M230.3 18.1l.7 1.3 1.4-.3-1 1.1.7 1.3-1.3-.6-1 1.1.2-1.5-1.3-.6 1.4-.3.2-1.5zm0 0"/><path id="XMLID_1523_" class="st0" d="M224.7 20.1l1.1 1 1.3-.7-.6 1.3 1.1 1-1.5-.2-.6 1.3-.3-1.4-1.5-.2 1.3-.7-.3-1.4zm0 0"/><path id="XMLID_1520_" class="st0" d="M220.2 23.9l1.4.5.9-1.1-.1 1.5 1.4.5-1.4.4-.1 1.5-.8-1.2-1.4.4.9-1.1-.8-1.4zm0 0"/><path id="XMLID_1515_" class="st0" d="M217.2 29l1.5.1.5-1.4.4 1.4 1.5.1-1.2.8.4 1.4-1.2-.9-1.2.8.5-1.4-1.2-.9zm0 0"/><path id="XMLID_1512_" class="st2" d="M252.9 15.2c-3.5-7.3-11-12.4-19.7-12.4s-16.2 5-19.7 12.4h39.4zm0 0"/></g><g id="XMLID_79_"><path id="XMLID_672_" class="st2" d="M420 24.8c0 2.7.5 5.2 1.4 7.6l20.5 1.9 20.5-1.9c.9-2.4 1.4-4.9 1.4-7.6s-.5-5.2-1.4-7.6l-20.5-1.9-20.5 1.9c-.9 2.3-1.4 4.9-1.4 7.6zm0 0"/><path id="XMLID_93_" class="st3" d="M462.4 17.1c-3.1-8.3-11.1-14.3-20.5-14.3s-17.4 5.9-20.5 14.3h41zm0 0"/><path id="XMLID_80_" class="st3" d="M421.4 32.4c3.1 8.3 11.1 14.3 20.5 14.3s17.4-5.9 20.5-14.3h-41zm0 0"/></g><g id="XMLID_40_"><path id="XMLID_61_" class="st0" d="M359.4 24.8c0 12.1-9.8 21.9-21.9 21.9-12.1 0-21.9-9.8-21.9-21.9 0-12.1 9.8-21.9 21.9-21.9 12.1 0 21.9 9.8 21.9 21.9zm0 0"/><path id="XMLID_53_" class="st3" d="M359.4 24.8c0-8.7-5-16.2-12.4-19.7v39.4c7.4-3.6 12.4-11.1 12.4-19.7zm0 0"/><path id="XMLID_49_" class="st5" d="M315.7 24.8c0 8.7 5 16.2 12.4 19.7V5c-7.4 3.6-12.4 11.1-12.4 19.8zm0 0"/><path id="XMLID_46_" class="st5" d="M331.9 24.8c0 3.2 2.6 5.7 5.7 5.7 3.2 0 5.7-2.6 5.7-5.7v-1.9h-11.4v1.9zm0 0"/><path id="XMLID_43_" d="M345.2 20.9h-5.7c0-1.1-.9-1.9-1.9-1.9-1.1 0-1.9.9-1.9 1.9H330c0 1.1.9 1.9 2 1.9h-.1c0 1.1.9 1.9 1.9 1.9 0 1.1.9 1.9 1.9 1.9h3.8c1.1 0 1.9-.9 1.9-1.9 1.1 0 1.9-.9 1.9-1.9h-.1c1.1 0 2-.8 2-1.9zm0 0" fill="#ff9811"/></g><g id="XMLID_2688_"><path id="XMLID_2695_" class="st0" d="M515.5 25.8c0 12.1-9.8 21.9-21.9 21.9-12.1 0-21.9-9.8-21.9-21.9 0-12.1 9.8-21.9 21.9-21.9 12.1.1 21.9 9.9 21.9 21.9zm0 0"/><path id="XMLID_2692_" class="st3" d="M515.5 25.8c0-9.4-5.9-17.4-14.3-20.5v41c8.4-3 14.3-11.1 14.3-20.5zm0 0"/><path id="XMLID_2689_" class="st3" d="M471.7 25.8c0 9.4 5.9 17.4 14.3 20.5v-41c-8.3 3.1-14.3 11.1-14.3 20.5zm0 0"/></g></svg>