<svg width="100" height="27" viewBox="0 0 80 27" fill="none" xmlns="http://www.w3.org/2000/svg"><path d="M14.222 3.053c-1.505.865-2.723 1.617-3.651 2.258-.93.609-1.874 1.425-2.835 2.45-.897.961-1.586 1.97-2.066 3.028-.48 1.057-.817 2.418-1.01 4.084h2.307c1.986 0 3.54.496 4.66 1.49 1.154.96 1.73 2.386 1.73 4.275 0 1.346-.512 2.611-1.537 3.796-.993 1.153-2.37 1.73-4.132 1.73-2.755 0-4.725-.897-5.91-2.69C.593 21.646 0 19.26 0 16.313c0-2.082.448-3.972 1.345-5.67a19.973 19.973 0 013.268-4.612 23.594 23.594 0 014.18-3.508 161.465 161.465 0 013.7-2.354l1.73 2.883zm17.778 0c-1.506.865-2.723 1.617-3.652 2.258-.929.609-1.873 1.425-2.834 2.45-.93.994-1.634 2.019-2.115 3.076-.448 1.025-.768 2.37-.96 4.036h2.306c1.986 0 3.54.496 4.66 1.49 1.154.96 1.73 2.386 1.73 4.275 0 1.346-.512 2.611-1.537 3.796-.993 1.153-2.37 1.73-4.133 1.73-2.754 0-4.724-.897-5.91-2.69-1.185-1.827-1.777-4.213-1.777-7.16 0-2.082.448-3.972 1.345-5.67a19.973 19.973 0 013.267-4.612 23.592 23.592 0 014.18-3.508A161.226 161.226 0 0130.27.17L32 3.053z" fill="#C9CDD3"/></svg>
