<?xml version="1.0" encoding="UTF-8"?>
<svg width="46px" height="41px" viewBox="0 0 46 41" version="1.1" xmlns="http://www.w3.org/2000/svg" xmlns:xlink="http://www.w3.org/1999/xlink">
    <title>E8565FF2-57CB-49DA-AE2D-8F80E925BCAB</title>
    <g id="Escalab-Sale" stroke="none" stroke-width="1" fill="none" fill-rule="evenodd">
        <g id="menu-first-experience-user" transform="translate(-1244.000000, -101.000000)">
            <g id="Group-2" transform="translate(1245.000000, 102.000000)">
                <g id="Shape-2" transform="translate(6.000000, 6.000000)" stroke="#94A3B8" stroke-linecap="round" stroke-linejoin="round" stroke-width="2">
                    <path d="M7.5,7.5 L12,12 L7.5,16.5 M15,16.5 L19.5,16.5 M3,24 L24,24 C25.6569,24 27,22.6575 27,21 L27,3 C27,1.3425 25.6569,0 24,0 L3,0 C1.3431,0 0,1.3425 0,3 L0,21 C0,22.6575 1.3431,24 3,24 Z" id="Shape"></path>
                </g>
                <line x1="38.5" y1="0.5" x2="0.5" y2="34.5" id="Line-4" stroke="#94A3B8" stroke-width="2" stroke-linecap="square"></line>
                <line x1="41.5" y1="2.5" x2="3.5" y2="36.5" id="Line-4-Copy" stroke="#FFFFFF" stroke-width="4" stroke-linecap="square"></line>
            </g>
        </g>
    </g>
</svg>