<?xml version="1.0" encoding="UTF-8"?>
<svg width="98px" height="19px" viewBox="0 0 98 19" version="1.1" xmlns="http://www.w3.org/2000/svg" xmlns:xlink="http://www.w3.org/1999/xlink">
    <title>globant-logo</title>
    <g id="Symbols" stroke="none" stroke-width="1" fill="none" fill-rule="evenodd">
        <g id="section-bootcamp" transform="translate(-688.000000, -958.000000)" fill-rule="nonzero">
            <g id="globant-logo" transform="translate(688.000000, 958.000000)">
                <path d="M7.79719837,17.3458345 C2.98842039,17.3458345 0,13.2882317 0,8.93006576 C0,4.33144925 2.68502745,0.589437774 7.79719837,0.589437774 C11.5744404,0.589437774 14.4718429,2.76852076 14.7297269,5.95449037 L11.4075743,5.95449037 C11.2407082,4.46670268 9.67823455,3.29450631 7.85787696,3.29450631 C5.1728495,3.29450631 3.44350979,5.32330771 3.44350979,9.05029103 C3.44350979,11.6201061 4.77843869,14.5055126 7.85787696,14.5055126 C10.6794312,14.5055126 11.7109672,13.0928657 11.7109672,10.9137827 L8.17643954,10.9137827 L8.17643954,8.35899574 L14.7904055,8.35899574 L14.7904055,11.0189798 C14.7145572,14.6858505 13.0458961,17.3458345 7.79719837,17.3458345 Z" id="Path" fill="#FFFFFF"></path>
                <polygon id="Path" fill="#FFFFFF" points="16.5955934 16.7897927 16.5955934 0.965141737 19.659862 0.965141737 19.659862 16.7897927"></polygon>
                <path d="M21.1616571,10.1022621 C21.3892018,7.53244702 23.7556666,5.18805429 26.3496762,4.96263191 C30.4454808,4.57189979 33.1153386,7.0665741 33.1153386,11.0490361 C33.1153386,14.7008786 30.824722,17.1354403 27.1384978,17.1354403 C23.0426932,17.105384 20.7824159,14.1448368 21.1616571,10.1022621 Z M29.9752218,11.0189798 C29.9752218,8.67458707 29.0347037,7.5023907 27.1536675,7.5023907 C25.2574616,7.5023907 24.3321132,8.67458707 24.3321132,11.0189798 C24.3321132,13.3633725 25.2726313,14.5355689 27.1536675,14.5355689 C29.019534,14.5355689 29.9752218,13.3633725 29.9752218,11.0189798 L29.9752218,11.0189798 Z" id="Shape" fill="#FFFFFF"></path>
                <path d="M34.5412854,16.7897927 L34.5412854,0.965141737 L37.6207237,0.965141737 L37.6207237,6.72092646 C38.4853935,5.4735893 39.668626,4.91754743 41.0794031,4.91754743 C44.0678235,4.91754743 45.8881811,7.41222175 45.8881811,10.9137827 C45.8881811,14.8060757 43.7644305,17.1504685 40.8518584,17.1504685 C39.4259116,17.1504685 38.333697,16.5944266 37.6207237,15.4372584 L37.6207237,16.8499053 L34.556455,16.8499053 L34.5412854,16.7897927 L34.5412854,16.7897927 Z M42.7328946,11.0941206 C42.7328946,8.74972786 41.8682247,7.5023907 40.0478671,7.5023907 C38.3185274,7.5023907 37.4538575,8.74972786 37.4538575,11.2444022 C37.4538575,13.1830346 38.63709,14.5956815 40.0478671,14.5956815 C41.6255104,14.6107097 42.7328946,13.1379502 42.7328946,11.0941206 Z" id="Shape" fill="#FFFFFF"></path>
                <path d="M54.9899691,16.7897927 C54.9141208,16.4892295 54.8231029,16.0984974 54.8231029,15.7678779 C54.1252992,16.5493421 52.8662185,17.0903558 51.2734056,17.0903558 C48.5883782,17.0903558 47.3444671,15.7678779 47.3444671,13.8893581 C47.3444671,10.5380787 49.6350838,10.1473466 52.6993524,9.75661448 C54.261826,9.5311921 54.6562368,9.20057262 54.6562368,8.43413653 C54.6562368,7.65267229 53.8674152,7.26194016 52.6993524,7.26194016 C51.2734056,7.26194016 50.742468,7.95323546 50.5756019,8.97515024 L47.6630297,8.97515024 C47.738878,6.57064487 49.0889765,4.91754743 52.7752006,4.91754743 C56.4614248,4.91754743 57.7356751,6.55561671 57.7356751,9.51616394 L57.7356751,16.8649335 L54.9747994,16.8649335 L54.9747994,16.7897927 L54.9899691,16.7897927 Z M54.8534422,11.0941206 C54.5500493,11.3946838 53.9887724,11.5599935 52.8965578,11.7854159 C51.1672181,12.0859791 50.5300929,12.6420209 50.5300929,13.5887949 C50.5300929,14.4453999 51.0913699,14.9112729 52.031888,14.9112729 C53.5943616,14.9112729 54.7927636,13.7390765 54.8534422,12.4165985 L54.8534422,11.0941206 Z" id="Shape" fill="#FFFFFF"></path>
                <path d="M67.5049275,16.7897927 L67.5049275,9.77164264 C67.5049275,7.96826362 66.9436506,7.5023907 65.5480431,7.5023907 C63.8945516,7.5023907 63.1815782,8.35899574 63.1815782,10.1623748 L63.1815782,16.7747645 L60.1173096,16.7747645 L60.1173096,5.15799797 L62.9388639,5.15799797 L62.9388639,6.87120804 C63.6366676,5.54873009 64.8350697,4.84240664 66.7161059,4.84240664 C68.9157047,4.84240664 70.5691961,6.16488459 70.5691961,8.7346997 L70.5691961,16.7597364 L67.5049275,16.7597364 L67.5049275,16.7897927 Z" id="Path" fill="#FFFFFF"></path>
                <path d="M79.549627,12.4316267 C79.4737787,13.6789639 78.9125018,14.4604281 77.7292694,14.4604281 C76.4701887,14.4604281 75.9089118,13.6038231 75.9089118,12.1160354 L75.9089118,7.35210912 L80.7176897,7.35210912 L80.7176897,4.94760375 L75.9089118,4.94760375 L75.9089118,2.06219731 L72.8446431,2.06219731 L72.8446431,12.4316267 C72.8446431,14.926301 74.179572,17.105384 77.6534211,17.105384 C80.9604041,17.105384 82.3711812,14.926301 82.3711812,12.4316267 L82.3711812,12.4316267 L79.549627,12.4316267 L79.549627,12.4316267 Z" id="Path" fill="#FFFFFF"></path>
                <path d="M86.1635929,0.108536701 C85.8602,-0.116885678 85.3747713,0.0333959079 85.1320569,0.333959079 C85.0562087,0.499268823 84.9651908,0.724691201 85.0562087,0.890000944 L86.4821555,2.91880235 C89.1671829,6.90126436 89.1671829,12.1160354 86.4821555,16.0834692 L85.0562087,18.1122706 C84.9803605,18.5030027 85.1320569,18.8937349 85.5264677,18.9688757 C85.6933338,19.0440165 85.9208785,18.9688757 86.0877447,18.8937349 L97.6470154,10.1623748 C98.0414262,9.86181159 98.1172744,9.30576973 97.8138815,8.9150376 C97.7380333,8.83989681 97.7380333,8.74972786 97.6470154,8.74972786 L86.1635929,0.108536701 Z" id="Path" fill="#BFD732"></path>
            </g>
        </g>
    </g>
</svg>