<svg version="1.1" id="Capa_1" xmlns="http://www.w3.org/2000/svg" x="0" y="0" viewBox="0 0 256 262.4" xml:space="preserve"><style>.st0{fill:#7289da}</style><circle class="st0" cx="128" cy="131.2" r="126.2"/><path d="M191.1 86c-20.6-15.5-40.3-15-40.3-15l-2 2.3c24.4 7.5 35.7 18.2 35.7 18.2-14.9-8.2-29.5-12.2-43.2-13.8-10.3-1.1-20.2-.9-29 .3-.9 0-1.6.1-2.4.3-5 .4-17.2 2.3-32.6 9-5.3 2.4-8.5 4.2-8.5 4.2s11.9-11.3 37.7-18.8l-1.4-1.7s-19.7-.4-40.3 15.1c0 0-20.7 37.4-20.7 83.6 0 0 12 20.8 43.7 21.8 0 0 5.3-6.5 9.6-11.9-18.2-5.5-25.1-16.9-25.1-16.9s1.4 1 4 2.4c.1.1.3.3.6.4.4.3.9.4 1.3.7 3.6 2 7.2 3.6 10.5 4.9 5.9 2.3 12.9 4.6 21.1 6.2 10.8 2 23.4 2.7 37.2.1 6.7-1.1 13.6-3.2 20.8-6.2 5-1.9 10.6-4.6 16.5-8.5 0 0-7.2 11.8-26 17.1 4.3 5.5 9.5 11.6 9.5 11.6 31.7-1 43.9-21.8 43.9-21.8.1-46.1-20.6-83.6-20.6-83.6z" fill="#fff"/><path class="st0" d="M101.2 124.5c-8.2 0-14.6 7.2-14.6 15.9s6.6 15.9 14.6 15.9c8.2 0 14.6-7.2 14.6-15.9.2-8.8-6.4-15.9-14.6-15.9z"/><ellipse class="st0" cx="153.5" cy="140.4" rx="14.6" ry="15.9"/></svg>