<svg version="1.1" id="Capa_1" xmlns="http://www.w3.org/2000/svg" x="0" y="0" viewBox="-899 901 200 200" xml:space="preserve"><style>.st5{opacity:.2;fill:#fff;enable-background:new}</style><g id="XMLID_233_"><path id="XMLID_253_" d="M-855.6 944.6h135.5v112.9h-135.5V944.6z" fill="#0f9d58"/><path id="XMLID_248_" d="M-757.8 1004.8c4.7 0 8.5-3.8 8.5-8.5s-3.8-8.5-8.5-8.5-8.5 3.8-8.5 8.5 3.8 8.5 8.5 8.5zm0 5.6c-9.1 0-18.8 4.8-18.8 10.8v6.2h37.6v-6.2c0-6-9.7-10.8-18.8-10.8zm-60.2-5.6c4.7 0 8.5-3.8 8.5-8.5s-3.8-8.5-8.5-8.5-8.5 3.8-8.5 8.5 3.8 8.5 8.5 8.5zm0 5.6c-9.1 0-18.8 4.8-18.8 10.8v6.2h37.6v-6.2c0-6-9.7-10.8-18.8-10.8z" fill="#57bb8a"/><path id="XMLID_245_" d="M-787.9 997.2c6.2 0 11.3-5 11.3-11.3 0-6.2-5-11.3-11.3-11.3-6.2 0-11.3 5-11.3 11.3 0 6.3 5.1 11.3 11.3 11.3zm0 7.6c-12.7 0-26.3 6.7-26.3 15.1v7.5h52.7v-7.5c-.1-8.4-13.7-15.1-26.4-15.1z" fill="#f7f7f7"/><path id="XMLID_244_" d="M-772.8 1049.9h33.9v7.5h-33.9v-7.5z" fill="#f1f1f1"/><path id="XMLID_241_" d="M-716.4 929.5h-143c-6.2 0-11.3 5-11.3 11.3v120.4c0 6.2 5 11.3 11.3 11.3h143c6.2 0 11.3-5 11.3-11.3V940.8c0-6.2-5.1-11.3-11.3-11.3zm-3.8 127.9h-135.4V944.6h135.5v112.8h-.1z" fill="#f4b400"/><path id="XMLID_240_" class="st5" d="M-716.4 929.5h-143c-6.2 0-11.3 5-11.3 11.3v.9c0-6.2 5-11.3 11.3-11.3h143c6.2 0 11.3 5 11.3 11.3v-.9c0-6.2-5.1-11.3-11.3-11.3z"/><path id="XMLID_239_" d="M-716.4 1071.6h-143c-6.2 0-11.3-5-11.3-11.3v.9c0 6.2 5 11.3 11.3 11.3h143c6.2 0 11.3-5 11.3-11.3v-.9c0 6.2-5.1 11.3-11.3 11.3z" opacity=".2" fill="#bf360c"/><linearGradient id="XMLID_2_" gradientUnits="userSpaceOnUse" x1="-2587.68" y1="1675.796" x2="-2587.68" y2="1675.862" gradientTransform="matrix(738.1628 0 0 227.2727 1909380.375 -379805.094)"><stop offset="0" stop-color="#bf360c" stop-opacity=".2"/><stop offset="1" stop-color="#bf360c" stop-opacity=".02"/></linearGradient><path id="XMLID_238_" d="M-739 1057.4h-33.9l15.1 15.1h33.8l-15-15.1z" fill="url(#XMLID_2_)"/><path id="XMLID_237_" d="M-855.6 943.6h135.5v.9h-135.5v-.9z" opacity=".2" fill="#263238"/><path id="XMLID_236_" class="st5" d="M-855.6 1057.4h135.5v.9h-135.5v-.9z"/><radialGradient id="XMLID_3_" cx="-2587.38" cy="1677.138" r=".316" gradientTransform="matrix(2159.1001 0 0 2159.0908 5585546.5 -3620160.75)" gradientUnits="userSpaceOnUse"><stop offset="0" stop-color="#fff" stop-opacity=".1"/><stop offset="1" stop-color="#fff" stop-opacity="0"/></radialGradient><path id="XMLID_235_" d="M-716.4 929.5h-143c-6.2 0-11.3 5-11.3 11.3v120.4c0 6.2 5 11.3 11.3 11.3h143c6.2 0 11.3-5 11.3-11.3V940.8c0-6.2-5.1-11.3-11.3-11.3z" fill="url(#XMLID_3_)"/></g><path d="M-813 945.1c0 22.7-18.4 41.1-41.1 41.1-22.7 0-41.1-18.4-41.1-41.1 0-22.7 18.4-41.1 41.1-41.1 22.7 0 41.1 18.4 41.1 41.1h0zm0 0" fill="#fff" stroke="#f4b400" stroke-width="5.5" stroke-miterlimit="10"/><path d="M-854.1 928.4c4.3 0 8.2 1.6 11.2 4.3l7-7.5c-4.8-4.4-11.2-7.1-18.2-7.1-10.3 0-19.3 5.8-23.8 14.3l8.2 6.6c2.5-6.2 8.5-10.6 15.6-10.6zm0 0" fill="#ea4335"/><path d="M-870.8 945.1c0-2.1.4-4.2 1.1-6l-8.2-6.6a27 27 0 00-3.1 12.6c0 4.6 1.1 8.9 3.2 12.7l8.2-6.7c-.8-1.9-1.2-3.9-1.2-6zm0 0" fill="#fbbc05"/><path d="M-844.8 959c-2.7 1.8-5.9 2.8-9.3 2.8-7.1 0-13.2-4.5-15.6-10.7l-8.2 6.7c4.5 8.5 13.5 14.3 23.8 14.3 6.7 0 12.8-2.4 17.5-6.5l-8.2-6.6zm0 0" fill="#34a853"/><path d="M-827.1 945.1c0-1.6-.1-3.1-.4-4.6H-853v9.5h14.9c-1.1 3.7-3.5 6.8-6.7 8.9l8.2 6.6c5.8-4.9 9.5-12.2 9.5-20.4zm0 0" fill="#4285f4"/></svg>