<svg version="1.1" id="Capa_1" xmlns="http://www.w3.org/2000/svg" x="0" y="0" viewBox="-32.5 40.5 20 20" xml:space="preserve"><style>.st0{fill:#309854}</style><path class="st0" d="M-18.5 49.3s-.2-1.4-1.6-1.4c-1.5 0-2.5.2-2.5 1s2.9.8 4 1.1c1.1.3 2.1 1.2 1.6 2.6-.5 1.5-2 1.6-4.2 1.6s-2.8-1.9-2.8-2.6h1.3s-.2 1.2 1.3 1.3c1.5.2 2.9.3 3.1-.9.3-1.5-4.9-.8-5.3-2.3-.4-1.3-.2-2.9 2.4-3.2 2.6-.3 4 .9 4 2.6l-1.3.2z"/><path class="st0" d="M-30.9 55.3l2.8 1.6c1.4.8 3.2-.2 3.2-1.8V47H-26v7.8c0 .9-1 1.5-1.7 1l-2-1.1v-8.3l7.2-4.2 7.2 4.2v8.3l-7.2 4.2-2.1-1.2-1.4.5 3.4 2 8.4-4.8v-9.7l-8.4-4.8-8.4 4.8.1 9.6z"/></svg>