<svg xmlns="http://www.w3.org/2000/svg" viewBox="0 0 200 200"><circle cx="100" cy="100.1" r="81.6" fill="#fff"/><path d="M100 18.5c-45.2 0-81.8 36.6-81.8 81.8 0 38.4 26.4 70.3 61.9 79.3-.4-1-.6-2.5-.6-3.9v-13.9H69.3c-5.5 0-10.6-2.4-12.9-7-2.7-4.9-3.1-12.5-9.8-17.2-2-1.6-.4-3.3 1.8-3.1 4.3 1.2 7.8 4.1 11 8.4 3.3 4.3 4.7 5.3 10.8 5.3 2.9 0 7.4-.2 11.4-.8 2.2-5.7 6.1-10.8 10.8-13.3-27.4-3.3-40.5-16.8-40.5-35.2 0-8 3.5-15.5 9.2-22.1-1.8-6.3-4.3-19.4.8-24.5 12.3 0 19.6 8 21.5 10 6.1-2 12.9-3.3 19.8-3.3 7.2 0 13.7 1.2 19.8 3.3 1.8-2 9.2-10 21.5-10 4.9 4.9 2.7 18.2.6 24.5 5.7 6.3 9 14.1 9 22.1 0 18.4-12.9 31.9-40.1 34.7 7.6 3.9 12.9 14.9 12.9 23.1v18.6c0 .6-.2 1.2-.2 1.8 31.9-11 54.8-41.3 54.8-77.1.3-44.9-36.3-81.5-81.5-81.5z"/></svg>