<svg xmlns="http://www.w3.org/2000/svg" viewBox="0 0 620 630"><path d="M7.4 466.6c23-23.8 45.9-48 69.3-71.6 25.5-25.8 51.5-51.2 77.5-76.6 3-2.9 2.6-4.2-.1-6.9-48.3-47.6-96.6-95.3-144.8-143-1.3-1.2-2.8-2.2-4.2-3.4 2.3-2.3 4.7-2.5 6.8-3.2 16.6-5.6 33.2-11 49.7-16.8 3.8-1.3 6.4-.8 9.6 1.6C118 182.2 165 217.5 211.9 253c3.7 2.8 5.7 2.7 9-.5C301 173 381.3 93.8 461.5 14.4c3-3 5.3-3.8 9.4-2.1 46.3 19.9 92.6 39.6 139.1 59.1 4 1.7 5.1 3.7 5.1 7.8-.1 157.1-.1 314.2 0 471.3 0 4.5-1.5 6.4-5.5 8-46.4 19.5-92.8 39.3-139.1 59.1-3.7 1.6-5.8 1-8.6-1.7-80.2-79.4-160.4-158.7-240.6-238.1-3.6-3.5-5.6-3.9-9.7-.8-46.7 35.4-93.5 70.6-140.3 106-3.3 2.5-6 3-10 1.6-18.5-6.4-37.1-12.4-53.9-18z" fill="#007acb"/><path d="M465.2 443.5c-13.1-9.9-25.8-19.4-38.5-28.9-42.8-32.3-85.6-64.6-128.5-96.7-3-2.2-3.6-3.3-.2-5.8 54.5-40.9 108.9-81.9 163.3-122.9 1.1-.8 2.3-1.6 3.9-2.8v257.1z" fill="#fefefe"/></svg>