<?xml version="1.0" encoding="UTF-8"?>
<svg width="694px" height="439px" viewBox="0 0 694 439" version="1.1" xmlns="http://www.w3.org/2000/svg" xmlns:xlink="http://www.w3.org/1999/xlink">
    <title>Group 188</title>
    <g id="404" stroke="none" stroke-width="1" fill="none" fill-rule="evenodd">
        <g id="Page-404" transform="translate(-373.000000, -70.000000)">
            <g id="Group-188" transform="translate(374.000000, 70.000000)">
                <g id="Group-5" transform="translate(14.492398, 0.000000)">
                    <path d="M661.826002,151.767307 C653.946002,123.389307 601.413002,154.255307 601.413002,154.255307 L615.160002,129.319307 C616.793002,126.847307 618.259002,124.227307 619.514002,121.420307 C626.418002,105.981307 626.327002,89.466307 619.479002,75.083307 C617.595002,66.351307 611.893002,53.870307 596.160002,40.194307 C566.391002,14.316307 466.579002,-3.384693 437.686002,0.546307002 C408.793002,4.477307 463.953002,16.632307 463.953002,16.632307 L459.581002,16.594307 C375.428002,7.672307 290.757002,6.524307 206.748002,8.263307 C185.682002,8.699307 164.552002,9.391307 143.926002,12.949307 C137.991002,13.973307 131.609002,15.537307 128.076002,20.325307 C112.394002,41.591307 176.546002,43.668307 186.608002,43.258307 C142.545002,48.986307 93.5860023,50.742307 52.6060023,67.771307 C46.8880023,70.147307 41.2240023,72.962307 36.9160023,77.359307 C32.6080023,81.755307 29.8010023,87.992307 30.7720023,94.260307 C33.5910023,112.457307 58.6620023,117.851307 72.8780023,121.893307 C72.8780023,121.893307 -8.84199775,176.232307 0.789002252,203.814307 C4.77000225,215.217307 10.7040023,227.219307 21.7010023,239.035307 C15.4330023,246.904307 9.91400225,255.161307 5.64800225,263.891307 C3.03800225,269.231307 -0.380997748,276.546307 2.54000225,282.694307 C17.4240023,314.019307 243.153002,421.549307 424.034002,390.859307 C472.086002,382.706307 519.942002,369.225307 562.065002,345.380307 C603.984002,321.652307 646.701002,282.456307 657.261002,233.032307 C657.609002,231.404307 657.864002,229.824307 658.038002,228.289307 C664.591002,205.509307 668.418002,175.509307 661.826002,151.767307" id="Fill-1" fill="#92E3A9"></path>
                    <path d="M661.826002,151.767307 C653.946002,123.389307 601.413002,154.255307 601.413002,154.255307 L615.160002,129.319307 C616.793002,126.847307 618.259002,124.227307 619.514002,121.420307 C626.418002,105.981307 626.327002,89.466307 619.479002,75.083307 C617.595002,66.351307 611.893002,53.870307 596.160002,40.194307 C566.391002,14.316307 466.579002,-3.384693 437.686002,0.546307002 C408.793002,4.477307 463.953002,16.632307 463.953002,16.632307 L459.581002,16.594307 C375.428002,7.672307 290.757002,6.524307 206.748002,8.263307 C185.682002,8.699307 164.552002,9.391307 143.926002,12.949307 C137.991002,13.973307 131.609002,15.537307 128.076002,20.325307 C112.394002,41.591307 176.546002,43.668307 186.608002,43.258307 C142.545002,48.986307 93.5860023,50.742307 52.6060023,67.771307 C46.8880023,70.147307 41.2240023,72.962307 36.9160023,77.359307 C32.6080023,81.755307 30.9220023,87.919307 30.7720023,94.260307 C30.3750023,111.037307 57.3360023,117.266307 72.8780023,121.893307 C72.8780023,121.893307 -8.84199775,176.232307 0.789002252,203.814307 C4.77000225,215.217307 10.7040023,227.219307 21.7010023,239.035307 C15.4330023,246.904307 9.91400225,255.161307 5.64800225,263.891307 C3.03800225,269.231307 -0.380997748,276.546307 2.54000225,282.694307 C17.4240023,314.019307 243.153002,421.549307 424.034002,390.859307 C472.086002,382.706307 519.942002,369.225307 562.065002,345.380307 C603.984002,321.652307 646.701002,282.456307 657.261002,233.032307 C657.609002,231.404307 657.864002,229.824307 658.038002,228.289307 C664.591002,205.509307 668.418002,175.509307 661.826002,151.767307" id="Fill-3" fill="#FFFFFF"></path>
                </g>
                <g id="Group-14" transform="translate(516.827500, 112.546579)" stroke="#263238">
                    <path d="M13.2654,8.21302823 C13.2654,8.21302823 14.2854,5.15202823 19.3874,4.13102823 C24.4904,3.11102823 30.6124,8.72302823 30.6124,8.72302823 C30.6124,8.72302823 34.6944,0.560028229 38.7754,0.0500282294 C42.8574,-0.460971771 47.4494,3.11102823 47.4494,3.11102823" id="Stroke-6"></path>
                    <path d="M0,27.6009282 C0,27.6009282 1.02,24.5399282 6.122,23.5189282 C11.225,22.4989282 17.347,28.1109282 17.347,28.1109282 C17.347,28.1109282 21.429,19.9479282 25.51,19.4379282 C29.592,18.9269282 34.184,22.4989282 34.184,22.4989282" id="Stroke-8"></path>
                    <path d="M48.4699,27.7228282 C48.4699,27.7228282 49.2469,25.3928282 53.1299,24.6158282 C57.0139,23.8388282 61.6739,28.1108282 61.6739,28.1108282 C61.6739,28.1108282 64.7809,21.8968282 67.8879,21.5088282 C70.9949,21.1208282 74.4909,23.8388282 74.4909,23.8388282" id="Stroke-10"></path>
                    <path d="M105.164,48.2649282 C105.164,48.2649282 105.673,46.7369282 108.22,46.2269282 C110.767,45.7179282 113.823,48.5199282 113.823,48.5199282 C113.823,48.5199282 115.861,44.4449282 117.898,44.1899282 C119.936,43.9349282 122.228,45.7179282 122.228,45.7179282" id="Stroke-12"></path>
                </g>
                <g id="Group-23" transform="translate(185.514500, 61.914181)" stroke="#263238">
                    <path d="M164.758,53.4384258 C159.486,29.7514258 132.183,12.0974258 108.384,15.4804258 C102.452,16.3234258 96.681,18.5424258 92.225,22.6424258 C86.149,28.2334258 87.59,34.5804258 84.581,41.5084258 C83.746,43.4314258 82.118,45.1384258 80.049,45.4944258 C74.13,46.5094258 69.361,40.6094258 63.369,40.5654258 C58.888,40.5324258 53.159,43.0084258 50.66,46.8774258 C48.333,50.4804258 49.954,56.7684258 45.766,59.1604258 C41.081,61.8354258 35.384,56.7464258 30.32,58.5884258 C24.027,60.8764258 26.888,65.4524258 24.599,68.3134258 C22.311,71.1734258 17.734,70.0294258 11.442,69.4574258 C5.149,68.8854258 -2.84217094e-14,76.3224258 -2.84217094e-14,76.3224258 L198.511,76.3224258 C198.511,76.3224258 200.227,73.4614258 192.79,62.0204258 C185.353,50.5784258 175.056,58.5884258 170.479,58.5884258 C165.906,58.5884258 164.76,53.4474258 164.758,53.4384258 Z" id="Stroke-15"></path>
                    <path d="M220.0425,15.3949258 C217.9275,5.89192575 206.9735,-1.19007425 197.4255,0.166925753 C195.0465,0.504925753 192.7305,1.39492575 190.9435,3.03992575 C188.5055,5.28292575 189.0835,7.82892575 187.8765,10.6089258 C187.5415,11.3799258 186.8885,12.0649258 186.0585,12.2079258 C183.6835,12.6149258 181.7705,10.2479258 179.3665,10.2309258 C177.5685,10.2169258 175.2705,11.2099258 174.2675,12.7629258 C173.3345,14.2079258 173.9845,16.7309258 172.3045,17.6909258 C170.4245,18.7639258 168.1395,16.7219258 166.1075,17.4609258 C163.5825,18.3789258 164.7305,20.2149258 163.8125,21.3629258 C162.8945,22.5099258 161.0585,22.0509258 158.5335,21.8219258 C156.0095,21.5919258 153.9435,24.5759258 153.9435,24.5759258 L233.5835,24.5759258 C233.5835,24.5759258 234.2725,23.4279258 231.2885,18.8379258 C228.3045,14.2479258 224.1735,17.4609258 222.3375,17.4609258 C220.5025,17.4609258 220.0435,15.3989258 220.0425,15.3949258 Z" id="Stroke-17"></path>
                    <path d="M389.9444,131.851826 C387.8294,122.348826 376.8754,115.266826 367.3274,116.623826 C364.9484,116.961826 362.6324,117.851826 360.8454,119.496826 C358.4074,121.739826 358.9854,124.285826 357.7784,127.065826 C357.4434,127.836826 356.7904,128.521826 355.9604,128.664826 C353.5854,129.071826 351.6724,126.704826 349.2684,126.687826 C347.4704,126.673826 345.1724,127.667826 344.1694,129.219826 C343.2364,130.664826 343.8864,133.187826 342.2064,134.147826 C340.3264,135.220826 338.0414,133.178826 336.0094,133.917826 C333.4854,134.835826 334.6324,136.671826 333.7144,137.819826 C332.7964,138.966826 330.9604,138.507826 328.4354,138.278826 C325.9114,138.048826 323.8454,141.032826 323.8454,141.032826 L403.4854,141.032826 C403.4854,141.032826 404.1744,139.884826 401.1904,135.294826 C398.2074,130.704826 394.0754,133.917826 392.2394,133.917826 C390.4054,133.917826 389.9454,131.855826 389.9444,131.851826 Z" id="Stroke-19"></path>
                    <path d="M262.1978,121.452926 C258.9578,106.897926 242.1808,96.0499258 227.5568,98.1279258 C223.9118,98.6459258 220.3658,100.009926 217.6278,102.528926 C213.8928,105.964926 214.7788,109.864926 212.9298,114.121926 C212.4168,115.303926 211.4168,116.352926 210.1448,116.570926 C206.5078,117.194926 203.5778,113.569926 199.8948,113.542926 C197.1418,113.522926 193.6218,115.043926 192.0858,117.420926 C190.6558,119.634926 191.6518,123.498926 189.0788,124.968926 C186.1998,126.612926 182.6988,123.485926 179.5868,124.616926 C175.7198,126.022926 177.4778,128.835926 176.0718,130.592926 C174.6658,132.350926 171.8538,131.647926 167.9868,131.295926 C164.1198,130.944926 160.9558,135.514926 160.9558,135.514926 L282.9388,135.514926 C282.9388,135.514926 283.9928,133.756926 279.4228,126.725926 C274.8528,119.695926 268.5258,124.616926 265.7128,124.616926 C262.9028,124.616926 262.1988,121.457926 262.1978,121.452926 Z" id="Stroke-21"></path>
                </g>
                <g id="Group-56" transform="translate(0.000000, 86.077207)">
                    <path d="M476.403,264.9876 C476.403,264.9876 469.112,257.4326 471.158,257.6606 C473.205,257.8876 477.035,263.5366 477.035,263.5366 C477.035,263.5366 477.088,251.0836 478.907,253.8126 C480.726,256.5406 478.491,263.5886 478.491,263.5886 C478.491,263.5886 483.691,255.4766 483.68,256.8016 C483.644,260.9006 479.673,264.1066 479.673,264.1066 C479.673,264.1066 488,257.9386 486.636,260.4396 C485.271,262.9406 479.947,265.3046 479.947,265.3046 C479.947,265.3046 489.546,263.3686 486.135,264.7326 C482.724,266.0976 479.479,267.0346 479.479,267.0346 L476.827,267.0346 C476.827,267.0346 467.762,262.4866 471.173,263.1686 C474.584,263.8506 476.403,264.9876 476.403,264.9876" id="Fill-24" fill="#263238"></path>
                    <path d="M572.6914,241.3483 C572.6914,241.3483 567.0174,235.4693 568.6094,235.6463 C570.2024,235.8233 573.1834,240.2193 573.1834,240.2193 C573.1834,240.2193 573.2244,230.5273 574.6404,232.6513 C576.0554,234.7743 574.3164,240.2593 574.3164,240.2593 C574.3164,240.2593 578.3634,233.9463 578.3544,234.9773 C578.3264,238.1673 575.2364,240.6633 575.2364,240.6633 C575.2364,240.6633 581.7164,235.8623 580.6554,237.8093 C579.5934,239.7553 575.4494,241.5953 575.4494,241.5953 C575.4494,241.5953 582.9204,240.0883 580.2654,241.1503 C577.6114,242.2123 575.0854,242.9413 575.0854,242.9413 L573.0214,242.9413 C573.0214,242.9413 565.9664,239.4013 568.6214,239.9323 C571.2754,240.4633 572.6914,241.3483 572.6914,241.3483" id="Fill-26" fill="#263238"></path>
                    <path d="M662.0871,220.2588 C662.0871,220.2588 656.4131,214.3798 658.0051,214.5568 C659.5981,214.7338 662.5791,219.1298 662.5791,219.1298 C662.5791,219.1298 662.6201,209.4378 664.0351,211.5618 C665.4511,213.6848 663.7121,219.1698 663.7121,219.1698 C663.7121,219.1698 667.7591,212.8568 667.7501,213.8878 C667.7221,217.0778 664.6321,219.5738 664.6321,219.5738 C664.6321,219.5738 671.1121,214.7728 670.0501,216.7198 C668.9891,218.6658 664.8451,220.5058 664.8451,220.5058 C664.8451,220.5058 672.3161,218.9988 669.6611,220.0608 C667.0071,221.1228 664.4811,221.8518 664.4811,221.8518 L662.4171,221.8518 C662.4171,221.8518 655.3621,218.3118 658.0171,218.8428 C660.6711,219.3738 662.0871,220.2588 662.0871,220.2588" id="Fill-28" fill="#263238"></path>
                    <path d="M548.1558,268.4297 C548.1558,268.4297 541.3778,261.4067 543.2798,261.6177 C545.1828,261.8297 548.7428,267.0807 548.7428,267.0807 C548.7428,267.0807 548.7918,255.5037 550.4838,258.0407 C552.1748,260.5767 550.0968,267.1297 550.0968,267.1297 C550.0968,267.1297 554.9308,259.5877 554.9198,260.8197 C554.8868,264.6307 551.1958,267.6107 551.1958,267.6107 C551.1958,267.6107 558.9368,261.8767 557.6688,264.2017 C556.3998,266.5267 551.4498,268.7247 551.4498,268.7247 C551.4498,268.7247 560.3738,266.9247 557.2028,268.1927 C554.0328,269.4617 551.0148,270.3317 551.0148,270.3317 L548.5498,270.3317 C548.5498,270.3317 540.1228,266.1047 543.2938,266.7387 C546.4648,267.3727 548.1558,268.4297 548.1558,268.4297" id="Fill-30" fill="#92E3A9"></path>
                    <polyline id="Stroke-32" stroke="#263238" points="414.027 237.963 354.06 170.732 340.926 181.238 275.184 82.258 217.952 95.01 200.839 63.039 184.204 62.164 152.684 0 105.538 43.017 82.807 34.899 0 119.329"></polyline>
                    <line x1="425.2716" y1="250.5696" x2="418.9846" y2="243.5206" id="Stroke-34" stroke="#263238"></line>
                    <line x1="187.2219" y1="103.2293" x2="182.2649" y2="104.5713" id="Stroke-36" stroke="#263238"></line>
                    <line x1="217.8362" y1="94.9379" x2="192.8032" y2="101.7179" id="Stroke-38" stroke="#263238"></line>
                    <polyline id="Stroke-40" stroke="#263238" points="123.3964 66.1611 137.4134 45.4691 136.4664 38.3711 152.5564 5.7191"></polyline>
                    <line x1="117.5383" y1="74.8088" x2="121.0543" y2="69.6178" id="Stroke-42" stroke="#263238"></line>
                    <line x1="95.7875" y1="87.0491" x2="73.0565" y2="117.8711" id="Stroke-44" stroke="#263238"></line>
                    <polyline id="Stroke-46" stroke="#263238" points="83.9401 38.3712 89.6191 51.1482 102.3951 61.5592 100.9761 80.0142 97.8791 84.2122"></polyline>
                    <polyline id="Stroke-48" stroke="#263238" points="200.8391 63.0395 188.9941 74.3355 184.7351 67.2375"></polyline>
                    <polyline id="Stroke-50" stroke="#263238" points="679.1417 189.5237 587.1257 124.6197 559.1917 164.0547 524.6857 152.5527 471.2837 227.3157 436.7767 219.9217 419.5237 234.7107"></polyline>
                    <polyline id="Stroke-52" stroke="#263238" points="587.1253 124.6193 576.1853 172.7113 563.2833 167.0663"></polyline>
                    <polyline id="Stroke-54" stroke="#263238" points="524.9809 155.3744 497.9669 233.9954 479.4209 230.7704"></polyline>
                </g>
                <g id="Group-89" transform="translate(9.806500, 177.598607)">
                    <path d="M513.9266,58.2358 C489.9816,58.2358 470.5696,77.5158 470.5696,101.2978 C470.5696,112.3248 474.7446,122.3808 481.6066,129.9988 C484.7466,129.5438 490.4686,129.2308 496.7936,131.3828 C505.1746,134.2338 510.3976,138.9048 511.5416,139.9968 L515.4266,139.9968 C516.5706,138.9048 521.7936,134.2338 530.1746,131.3828 C537.0606,129.0398 543.2356,129.6188 546.1366,130.1218 C553.0646,122.4888 557.2836,112.3838 557.2836,101.2978 C557.2836,77.5158 537.8716,58.2358 513.9266,58.2358" id="Fill-57" fill="#C8D6FF"></path>
                    <path d="M534.1087,118.5702 C532.7747,119.2152 531.4527,119.8822 530.1477,120.5782 C528.8417,121.2922 527.5617,122.0672 526.3607,122.9162 C525.9067,123.2302 525.4637,123.5542 525.0207,123.8782 L532.1227,110.6482 L522.3777,125.9092 C521.3897,126.7032 520.4197,127.5142 519.4677,128.3412 C517.8937,129.7112 516.3637,131.1072 514.8637,132.5462 L514.3687,118.1922 L524.5657,102.6672 L514.2937,116.0202 L513.8507,103.1732 L513.1187,117.5482 L513.1167,117.5512 L513.1187,117.5532 L512.3847,131.9602 C511.0817,130.7282 509.7577,129.5232 508.3987,128.3412 C507.3297,127.4122 506.2417,126.5002 505.1267,125.6142 L495.9067,109.8682 L502.6787,123.7582 C502.2897,123.4762 501.9027,123.1902 501.5057,122.9162 C500.3057,122.0672 499.0247,121.2922 497.7187,120.5782 C496.4137,119.8822 495.0917,119.2152 493.7577,118.5702 C491.0867,117.2882 488.3647,116.0892 485.5537,115.0992 C488.2847,116.2562 490.9027,117.6112 493.4607,119.0432 C494.7367,119.7632 495.9987,120.5032 497.2387,121.2692 C498.4607,122.0422 499.6357,122.8602 500.7507,123.7622 C502.9977,125.5402 505.0957,127.4822 507.1157,129.4852 C508.8807,131.2382 510.5977,133.0512 512.2347,134.8902 L511.3037,153.1772 L515.5757,153.1772 L514.9707,135.6332 C516.8007,133.5382 518.7487,131.4742 520.7507,129.4852 C522.7707,127.4822 524.8687,125.5402 527.1157,123.7622 C528.2317,122.8602 529.4057,122.0422 530.6277,121.2692 C531.8687,120.5032 533.1297,119.7632 534.4067,119.0432 C536.9637,117.6112 539.5817,116.2562 542.3127,115.0992 C539.5017,116.0892 536.7797,117.2882 534.1087,118.5702" id="Fill-59" fill="#263238"></path>
                    <path d="M181.0349,117.3236 C181.0349,129.6966 174.0969,130.6306 165.5379,130.6306 C156.9799,130.6306 150.0419,129.6966 150.0419,117.3236 C150.0419,104.9506 156.9799,79.0876 165.5379,79.0876 C174.0969,79.0876 181.0349,104.9506 181.0349,117.3236" id="Fill-61" fill="#C8D6FF"></path>
                    <polygon id="Fill-63" fill="#263238" points="170.7779 122.9374 168.2149 123.1144 174.8909 118.6134 170.1229 121.0234 170.7779 119.1404 168.5979 121.7944 166.0409 123.0874 165.8379 114.2024 167.1919 110.9144 165.8049 112.7634 165.6879 107.6114 169.9339 101.9494 165.6579 106.3264 165.3989 94.9884 165.1699 102.2454 162.4459 99.2074 165.1259 103.6394 164.7639 115.1354 162.3919 113.5844 160.2309 109.7534 161.0979 112.7384 156.8559 109.9644 164.7129 116.7414 163.5229 154.4724 166.7579 154.4724 166.0749 124.5574 166.8219 124.0534"></polygon>
                    <path d="M597.8442,74.714 C597.8442,98.89 584.2872,100.716 567.5632,100.716 C550.8402,100.716 537.2832,98.89 537.2832,74.714 C537.2832,50.538 550.8402,0 567.5632,0 C584.2872,0 597.8442,50.538 597.8442,74.714" id="Fill-65" fill="#92E3A9"></path>
                    <path d="M597.8442,74.714 C597.8442,98.89 584.2872,100.716 567.5632,100.716 C550.8402,100.716 537.2832,98.89 537.2832,74.714 C537.2832,50.538 550.8402,0 567.5632,0 C584.2872,0 597.8442,50.538 597.8442,74.714" id="Fill-67" fill="#FFFFFF"></path>
                    <polygon id="Fill-69" fill="#263238" points="577.802 85.6833 572.794 86.0283 585.839 77.2343 576.522 81.9433 577.802 78.2643 573.542 83.4503 568.546 85.9753 568.15 68.6143 570.795 62.1893 568.085 65.8023 567.855 55.7363 576.153 44.6723 567.798 53.2263 567.292 31.0703 566.844 45.2513 561.521 39.3143 566.758 47.9753 566.05 70.4373 561.416 67.4073 557.193 59.9223 558.886 65.7533 550.599 60.3343 565.951 73.5763 563.626 147.3033 569.948 147.3033 568.612 88.8483 570.072 87.8633"></polygon>
                    <path d="M662.6629,84.2293 C662.6629,96.6023 655.7249,97.5363 647.1659,97.5363 C638.6079,97.5363 631.6699,96.6023 631.6699,84.2293 C631.6699,71.8563 638.6079,45.9933 647.1659,45.9933 C655.7249,45.9933 662.6629,71.8563 662.6629,84.2293" id="Fill-71" fill="#92E3A9"></path>
                    <path d="M662.6629,84.2293 C662.6629,96.6023 655.7249,97.5363 647.1659,97.5363 C638.6079,97.5363 631.6699,96.6023 631.6699,84.2293 C631.6699,71.8563 638.6079,45.9933 647.1659,45.9933 C655.7249,45.9933 662.6629,71.8563 662.6629,84.2293" id="Fill-73" fill="#FFFFFF"></path>
                    <polygon id="Fill-75" fill="#263238" points="652.406 89.8431 649.843 90.0201 656.519 85.5191 651.751 87.9291 652.406 86.0461 650.226 88.7001 647.669 89.9921 647.466 81.1081 648.82 77.8201 647.433 79.6691 647.315 74.5171 651.562 68.8551 647.286 73.2321 647.027 61.8941 646.798 69.1511 644.074 66.1121 646.754 70.5451 646.392 82.0411 644.02 80.4901 641.859 76.6591 642.725 79.6441 638.484 76.8701 646.341 83.6471 645.151 121.3781 648.386 121.3781 647.703 91.4631 648.45 90.9591"></polygon>
                    <path d="M30.993,73.767 C30.993,86.14 24.055,87.074 15.496,87.074 C6.938,87.074 0,86.14 0,73.767 C0,61.394 6.938,35.531 15.496,35.531 C24.055,35.531 30.993,61.394 30.993,73.767" id="Fill-77" fill="#92E3A9"></path>
                    <path d="M30.993,73.767 C30.993,86.14 24.055,87.074 15.496,87.074 C6.938,87.074 0,86.14 0,73.767 C0,61.394 6.938,35.531 15.496,35.531 C24.055,35.531 30.993,61.394 30.993,73.767" id="Fill-79" fill="#FFFFFF"></path>
                    <polygon id="Fill-81" fill="#263238" points="20.736 79.3808 18.173 79.5578 24.849 75.0568 20.081 77.4668 20.736 75.5838 18.556 78.2378 15.999 79.5298 15.796 70.6458 17.15 67.3578 15.763 69.2068 15.646 64.0548 19.892 58.3928 15.616 62.7698 15.357 51.4318 15.128 58.6888 12.404 55.6498 15.084 60.0828 14.722 71.5788 12.35 70.0278 10.189 66.1968 11.056 69.1808 6.814 66.4078 14.671 73.1848 13.481 110.9158 16.716 110.9158 16.033 80.9998 16.78 80.4968"></polygon>
                    <path d="M107.7867,45.7084 C83.8417,45.7084 64.4297,64.9884 64.4297,88.7704 C64.4297,99.7974 68.6047,109.8534 75.4667,117.4714 C78.6067,117.0164 84.3287,116.7034 90.6537,118.8554 C99.0347,121.7064 104.2577,126.3774 105.4017,127.4694 L109.2867,127.4694 C110.4307,126.3774 115.6537,121.7064 124.0347,118.8554 C130.9207,116.5124 137.0957,117.0914 139.9967,117.5944 C146.9247,109.9624 151.1437,99.8564 151.1437,88.7704 C151.1437,64.9884 131.7317,45.7084 107.7867,45.7084" id="Fill-83" fill="#92E3A9"></path>
                    <path d="M107.7867,45.7084 C83.8417,45.7084 64.4297,64.9884 64.4297,88.7704 C64.4297,99.7974 68.6047,109.8534 75.4667,117.4714 C78.6067,117.0164 84.3287,116.7034 90.6537,118.8554 C99.0347,121.7064 104.2577,126.3774 105.4017,127.4694 L109.2867,127.4694 C110.4307,126.3774 115.6537,121.7064 124.0347,118.8554 C130.9207,116.5124 137.0957,117.0914 139.9967,117.5944 C146.9247,109.9624 151.1437,99.8564 151.1437,88.7704 C151.1437,64.9884 131.7317,45.7084 107.7867,45.7084" id="Fill-85" fill="#FFFFFF"></path>
                    <path d="M127.9689,106.0428 C126.6349,106.6878 125.3129,107.3548 124.0079,108.0508 C122.7019,108.7648 121.4219,109.5398 120.2209,110.3888 C119.7669,110.7028 119.3239,111.0268 118.8809,111.3508 L125.9829,98.1208 L116.2379,113.3818 C115.2509,114.1758 114.2799,114.9868 113.3279,115.8138 C111.7539,117.1838 110.2239,118.5798 108.7239,120.0188 L108.2289,105.6648 L118.4249,90.1398 L108.1549,103.4928 L107.7119,90.6458 L106.9789,105.0208 L106.9769,105.0238 L106.9789,105.0258 L106.2449,119.4328 C104.9419,118.2008 103.6179,116.9958 102.2589,115.8138 C101.1899,114.8848 100.1019,113.9728 98.9869,113.0868 L89.7669,97.3408 L96.5389,111.2308 C96.1499,110.9478 95.7629,110.6628 95.3659,110.3888 C94.1659,109.5398 92.8849,108.7648 91.5789,108.0508 C90.2739,107.3548 88.9519,106.6878 87.6179,106.0428 C84.9469,104.7608 82.2249,103.5618 79.4139,102.5718 C82.1449,103.7288 84.7629,105.0838 87.3209,106.5158 C88.5969,107.2358 89.8589,107.9758 91.0999,108.7418 C92.3209,109.5148 93.4959,110.3328 94.6109,111.2348 C96.8579,113.0128 98.9559,114.9548 100.9759,116.9578 C102.7409,118.7108 104.4589,120.5238 106.0949,122.3628 L105.1639,140.6498 L109.4359,140.6498 L108.8309,123.1058 C110.6609,121.0108 112.6089,118.9468 114.6109,116.9578 C116.6309,114.9548 118.7289,113.0128 120.9759,111.2348 C122.0919,110.3328 123.2659,109.5148 124.4879,108.7418 C125.7289,107.9758 126.9899,107.2358 128.2669,106.5158 C130.8239,105.0838 133.4419,103.7288 136.1729,102.5718 C133.3619,103.5618 130.6399,104.7608 127.9689,106.0428" id="Fill-87" fill="#263238"></path>
                </g>
                <path d="M211.9396,287.365007 L237.9706,287.365007 L237.9706,215.150007 L211.9396,287.365007 Z M237.9706,351.813007 L237.9706,312.136007 L186.3286,312.136007 L186.3286,286.735007 L230.6236,181.771007 L268.4096,181.771007 L268.4096,287.365007 L284.7846,287.365007 L284.7846,312.136007 L268.4096,312.136007 L268.4096,351.813007 L237.9706,351.813007 Z" id="Fill-90" fill="#4E73DF"></path>
                <g id="Group-95" transform="translate(300.109500, 176.613507)" fill="#4E73DF">
                    <path d="M45.554,146.74 C49.333,146.74 52.062,145.552 53.741,143.17 C55.421,140.793 56.539,137.958 57.1,134.668 C57.658,131.382 57.94,128.338 57.94,125.537 L57.94,50.593 C57.94,47.516 57.694,44.295 57.205,40.936 C56.713,37.577 55.63,34.674 53.951,32.224 C52.272,29.777 49.471,28.55 45.554,28.55 C41.634,28.55 38.8,29.777 37.052,32.224 C35.301,34.674 34.182,37.577 33.693,40.936 C33.201,44.295 32.958,47.516 32.958,50.593 L32.958,125.537 C32.958,128.338 33.237,131.382 33.798,134.668 C34.356,137.958 35.546,140.793 37.367,143.17 C39.184,145.552 41.913,146.74 45.554,146.74 M45.554,175.29 C35.337,175.29 26.87,173.191 20.153,168.992 C13.435,164.793 8.397,159.02 5.038,151.672 C1.679,144.325 0,135.823 0,126.166 L0,49.963 C0,40.027 1.607,31.315 4.828,23.827 C8.046,16.342 13.015,10.497 19.733,6.298 C26.451,2.099 35.057,0 45.554,0 C55.91,0 64.411,2.099 71.06,6.298 C77.706,10.497 82.639,16.342 85.86,23.827 C89.078,31.315 90.689,40.027 90.689,49.963 L90.689,126.166 C90.689,135.823 89.009,144.325 85.65,151.672 C82.292,159.02 77.253,164.793 70.535,168.992 C63.818,173.191 55.489,175.29 45.554,175.29" id="Fill-91"></path>
                    <path d="M133.9324,110.7515 L159.9634,110.7515 L159.9634,38.5365 L133.9324,110.7515 Z M159.9634,175.1995 L159.9634,135.5225 L108.3214,135.5225 L108.3214,110.1215 L152.6164,5.1575 L190.4024,5.1575 L190.4024,110.7515 L206.7774,110.7515 L206.7774,135.5225 L190.4024,135.5225 L190.4024,175.1995 L159.9634,175.1995 Z" id="Fill-93"></path>
                </g>
                <g id="Group-102" transform="translate(0.206200, 265.822107)">
                    <path d="M692.0361,3.982 C626.6591,46.84 497.5411,76.01 348.9381,76.01 C195.7761,76.01 63.3091,45.024 0.0001,0 L0.0001,172.344 L692.0361,172.344 L692.0361,3.982 Z" id="Fill-96" fill="#FFFFFF"></path>
                    <path d="M677.834,12.5306 C609.014,50.6726 487.437,76.0096 348.938,76.0096 C195.776,76.0096 63.309,45.0236 0,0.0006" id="Stroke-98" stroke="#263238"></path>
                    <path d="M692.3394,3.7864 C689.3924,5.7254 686.3154,7.6374 683.1124,9.5194" id="Stroke-100" stroke="#263238"></path>
                </g>
                <g id="Group-115" transform="translate(29.998700, 167.824807)">
                    <path d="M620.5047,91.9922 C620.5047,117.2732 606.3287,119.1812 588.8407,119.1812 C571.3537,119.1812 557.1777,117.2732 557.1777,91.9922 C557.1777,66.7112 571.3537,13.8662 588.8407,13.8662 C606.3287,13.8662 620.5047,66.7112 620.5047,91.9922" id="Fill-103" fill="#C8D6FF"></path>
                    <polygon id="Fill-105" fill="#263238" points="599.5472 103.4625 594.3102 103.8235 607.9512 94.6275 598.2092 99.5515 599.5472 95.7045 595.0932 101.1275 589.8682 103.7675 589.4542 85.6135 592.2202 78.8955 589.3862 82.6735 589.1462 72.1475 597.8232 60.5785 589.0862 69.5235 588.5572 46.3555 588.0892 61.1835 582.5232 54.9755 587.9992 64.0325 587.2582 87.5205 582.4122 84.3515 577.9972 76.5255 579.7672 82.6225 571.1012 76.9565 587.1552 90.8025 584.7242 167.8965 591.3342 167.8965 589.9372 106.7715 591.4642 105.7425"></polygon>
                    <path d="M586.7076,168.5772 C586.7076,168.5772 575.0206,156.4682 578.3016,156.8332 C581.5816,157.1972 587.7196,166.2522 587.7196,166.2522 C587.7196,166.2522 587.8046,146.2912 590.7206,150.6642 C593.6366,155.0382 590.0536,166.3352 590.0536,166.3352 C590.0536,166.3352 598.3896,153.3322 598.3706,155.4562 C598.3126,162.0262 591.9486,167.1652 591.9486,167.1652 C591.9486,167.1652 605.2956,157.2782 603.1086,161.2872 C600.9216,165.2972 592.3876,169.0862 592.3876,169.0862 C592.3876,169.0862 607.7736,165.9822 602.3066,168.1692 C596.8396,170.3562 591.6376,171.8572 591.6376,171.8572 L587.3866,171.8572 C587.3866,171.8572 572.8576,164.5682 578.3246,165.6612 C583.7916,166.7552 586.7076,168.5772 586.7076,168.5772" id="Fill-107" fill="#263238"></path>
                    <path d="M26.86,153.5428 C26.86,153.5428 16.752,143.0698 19.589,143.3848 C22.426,143.6998 27.736,151.5318 27.736,151.5318 C27.736,151.5318 27.809,134.2668 30.331,138.0498 C32.853,141.8328 29.754,151.6038 29.754,151.6038 C29.754,151.6038 36.964,140.3568 36.948,142.1938 C36.898,147.8768 31.393,152.3218 31.393,152.3218 C31.393,152.3218 42.937,143.7698 41.046,147.2378 C39.154,150.7058 31.773,153.9828 31.773,153.9828 C31.773,153.9828 45.081,151.2978 40.352,153.1898 C35.624,155.0808 31.124,156.3798 31.124,156.3798 L27.447,156.3798 C27.447,156.3798 14.881,150.0748 19.609,151.0208 C24.338,151.9668 26.86,153.5428 26.86,153.5428" id="Fill-109" fill="#263238"></path>
                    <path d="M63.396,78.211 C63.396,103.519 49.204,105.43 31.698,105.43 C14.192,105.43 0,103.519 0,78.211 C0,52.903 14.192,0 31.698,0 C49.204,0 63.396,52.903 63.396,78.211" id="Fill-111" fill="#C8D6FF"></path>
                    <polygon id="Fill-113" fill="#263238" points="42.4156 89.6938 37.1726 90.0548 50.8296 80.8488 41.0756 85.7788 42.4156 81.9278 37.9566 87.3558 32.7266 89.9998 32.3116 71.8258 35.0806 65.0998 32.2436 68.8818 32.0036 58.3448 40.6896 46.7628 31.9426 55.7178 31.4126 32.5238 30.9446 47.3688 25.3726 41.1538 30.8546 50.2208 30.1136 73.7348 25.2616 70.5618 20.8416 62.7268 22.6146 68.8308 13.9386 63.1588 30.0096 77.0198 27.5766 154.1978 34.1936 154.1978 32.7956 93.0068 34.3236 91.9758"></polygon>
                </g>
                <g id="Group-150" transform="translate(26.183212, 309.678692)">
                    <path d="M141.339788,37.9996152 C141.339788,37.9996152 131.231788,27.5266152 134.068788,27.8416152 C136.905788,28.1566152 142.215788,35.9886152 142.215788,35.9886152 C142.215788,35.9886152 142.288788,18.7236152 144.810788,22.5066152 C147.332788,26.2896152 144.233788,36.0606152 144.233788,36.0606152 C144.233788,36.0606152 151.443788,24.8136152 151.427788,26.6506152 C151.377788,32.3336152 145.872788,36.7786152 145.872788,36.7786152 C145.872788,36.7786152 157.416788,28.2266152 155.525788,31.6946152 C153.633788,35.1626152 146.252788,38.4396152 146.252788,38.4396152 C146.252788,38.4396152 159.560788,35.7556152 154.831788,37.6466152 C150.103788,39.5376152 145.603788,40.8366152 145.603788,40.8366152 L141.926788,40.8366152 C141.926788,40.8366152 129.360788,34.5316152 134.088788,35.4776152 C138.817788,36.4236152 141.339788,37.9996152 141.339788,37.9996152" id="Fill-116" fill="#263238"></path>
                    <path d="M194.990088,60.9499152 C194.990088,60.9499152 184.882088,50.4769152 187.719088,50.7919152 C190.556088,51.1069152 195.866088,58.9389152 195.866088,58.9389152 C195.866088,58.9389152 195.939088,41.6739152 198.461088,45.4569152 C200.983088,49.2399152 197.884088,59.0109152 197.884088,59.0109152 C197.884088,59.0109152 205.094088,47.7639152 205.078088,49.6009152 C205.028088,55.2839152 199.523088,59.7289152 199.523088,59.7289152 C199.523088,59.7289152 211.067088,51.1779152 209.176088,54.6449152 C207.284088,58.1129152 199.903088,61.3899152 199.903088,61.3899152 C199.903088,61.3899152 213.211088,58.7059152 208.482088,60.5969152 C203.754088,62.4889152 199.254088,63.7869152 199.254088,63.7869152 L195.577088,63.7869152 C195.577088,63.7869152 183.011088,57.4819152 187.739088,58.4279152 C192.468088,59.3739152 194.990088,60.9499152 194.990088,60.9499152" id="Fill-118" fill="#263238"></path>
                    <path d="M338.893188,45.5400152 C338.893188,45.5400152 331.602188,37.9860152 333.648188,38.2130152 C335.695188,38.4400152 339.525188,44.0890152 339.525188,44.0890152 C339.525188,44.0890152 339.578188,31.6360152 341.397188,34.3650152 C343.216188,37.0930152 340.981188,44.1410152 340.981188,44.1410152 C340.981188,44.1410152 346.181188,36.0290152 346.169188,37.3540152 C346.134188,41.4530152 342.163188,44.6590152 342.163188,44.6590152 C342.163188,44.6590152 350.490188,38.4910152 349.126188,40.9920152 C347.761188,43.4940152 342.437188,45.8570152 342.437188,45.8570152 C342.437188,45.8570152 352.036188,43.9210152 348.625188,45.2850152 C345.214188,46.6500152 341.969188,47.5870152 341.969188,47.5870152 L339.317188,47.5870152 C339.317188,47.5870152 330.252188,43.0390152 333.663188,43.7210152 C337.074188,44.4030152 338.893188,45.5400152 338.893188,45.5400152" id="Fill-120" fill="#263238"></path>
                    <path d="M621.920188,27.4638152 C621.920188,27.4638152 616.246188,21.5848152 617.838188,21.7618152 C619.431188,21.9388152 622.412188,26.3348152 622.412188,26.3348152 C622.412188,26.3348152 622.453188,16.6428152 623.869188,18.7668152 C625.284188,20.8898152 623.545188,26.3758152 623.545188,26.3758152 C623.545188,26.3758152 627.592188,20.0618152 627.583188,21.0928152 C627.555188,24.2828152 624.465188,26.7788152 624.465188,26.7788152 C624.465188,26.7788152 630.945188,21.9778152 629.884188,23.9248152 C628.822188,25.8708152 624.678188,27.7108152 624.678188,27.7108152 C624.678188,27.7108152 632.149188,26.2038152 629.494188,27.2658152 C626.840188,28.3278152 624.314188,29.0568152 624.314188,29.0568152 L622.250188,29.0568152 C622.250188,29.0568152 615.195188,25.5168152 617.850188,26.0478152 C620.504188,26.5788152 621.920188,27.4638152 621.920188,27.4638152" id="Fill-122" fill="#263238"></path>
                    <path d="M239.852988,45.5802152 C239.852988,45.5802152 229.744988,35.1072152 232.581988,35.4222152 C235.418988,35.7372152 240.728988,43.5692152 240.728988,43.5692152 C240.728988,43.5692152 240.801988,26.3042152 243.323988,30.0872152 C245.845988,33.8702152 242.746988,43.6412152 242.746988,43.6412152 C242.746988,43.6412152 249.956988,32.3942152 249.940988,34.2312152 C249.890988,39.9142152 244.385988,44.3592152 244.385988,44.3592152 C244.385988,44.3592152 255.929988,35.8072152 254.038988,39.2752152 C252.147988,42.7432152 244.765988,46.0202152 244.765988,46.0202152 C244.765988,46.0202152 258.073988,43.3352152 253.344988,45.2272152 C248.616988,47.1182152 244.116988,48.4172152 244.116988,48.4172152 L240.439988,48.4172152 C240.439988,48.4172152 227.873988,42.1122152 232.602988,43.0582152 C237.330988,44.0042152 239.852988,45.5802152 239.852988,45.5802152" id="Fill-124" fill="#C8D6FF"></path>
                    <path d="M166.911788,38.6223152 C166.911788,38.6223152 160.133788,31.5993152 162.035788,31.8103152 C163.938788,32.0223152 167.498788,37.2733152 167.498788,37.2733152 C167.498788,37.2733152 167.548788,25.6963152 169.239788,28.2333152 C170.930788,30.7703152 168.852788,37.3223152 168.852788,37.3223152 C168.852788,37.3223152 173.686788,29.7803152 173.676788,31.0123152 C173.642788,34.8233152 169.951788,37.8033152 169.951788,37.8033152 C169.951788,37.8033152 177.692788,32.0693152 176.424788,34.3943152 C175.155788,36.7203152 170.206788,38.9173152 170.206788,38.9173152 C170.206788,38.9173152 179.129788,37.1173152 175.959788,38.3853152 C172.788788,39.6543152 169.770788,40.5243152 169.770788,40.5243152 L167.305788,40.5243152 C167.305788,40.5243152 158.878788,36.2973152 162.049788,36.9313152 C165.220788,37.5653152 166.911788,38.6223152 166.911788,38.6223152" id="Fill-126" fill="#C8D6FF"></path>
                    <path d="M82.2134882,66.3626152 C82.2134882,66.3626152 75.4354882,59.3396152 77.3374882,59.5506152 C79.2404882,59.7626152 82.8004882,65.0136152 82.8004882,65.0136152 C82.8004882,65.0136152 82.8504882,53.4366152 84.5414882,55.9736152 C86.2324882,58.5106152 84.1544882,65.0626152 84.1544882,65.0626152 C84.1544882,65.0626152 88.9884882,57.5206152 88.9774882,58.7526152 C88.9444882,62.5636152 85.2534882,65.5436152 85.2534882,65.5436152 C85.2534882,65.5436152 92.9944882,59.8096152 91.7264882,62.1346152 C90.4574882,64.4606152 85.5074882,66.6576152 85.5074882,66.6576152 C85.5074882,66.6576152 94.4314882,64.8576152 91.2614882,66.1256152 C88.0904882,67.3946152 85.0724882,68.2656152 85.0724882,68.2656152 L82.6074882,68.2656152 C82.6074882,68.2656152 74.1804882,64.0376152 77.3514882,64.6716152 C80.5224882,65.3056152 82.2134882,66.3626152 82.2134882,66.3626152" id="Fill-128" fill="#C8D6FF"></path>
                    <path d="M308.980888,67.7234152 C308.980888,67.7234152 302.202888,60.7004152 304.104888,60.9114152 C306.007888,61.1234152 309.567888,66.3744152 309.567888,66.3744152 C309.567888,66.3744152 309.617888,54.7974152 311.308888,57.3344152 C312.999888,59.8714152 310.921888,66.4234152 310.921888,66.4234152 C310.921888,66.4234152 315.755888,58.8814152 315.744888,60.1134152 C315.711888,63.9244152 312.020888,66.9044152 312.020888,66.9044152 C312.020888,66.9044152 319.761888,61.1704152 318.493888,63.4954152 C317.224888,65.8204152 312.275888,68.0184152 312.275888,68.0184152 C312.275888,68.0184152 321.198888,66.2184152 318.028888,67.4864152 C314.857888,68.7554152 311.839888,69.6254152 311.839888,69.6254152 L309.374888,69.6254152 C309.374888,69.6254152 300.947888,65.3984152 304.118888,66.0324152 C307.289888,66.6664152 308.980888,67.7234152 308.980888,67.7234152" id="Fill-130" fill="#C8D6FF"></path>
                    <path d="M418.953888,68.0904152 C418.953888,68.0904152 412.175888,61.0674152 414.077888,61.2784152 C415.980888,61.4904152 419.540888,66.7414152 419.540888,66.7414152 C419.540888,66.7414152 419.589888,55.1644152 421.281888,57.7014152 C422.972888,60.2384152 420.894888,66.7904152 420.894888,66.7904152 C420.894888,66.7904152 425.728888,59.2484152 425.717888,60.4804152 C425.684888,64.2914152 421.993888,67.2714152 421.993888,67.2714152 C421.993888,67.2714152 429.734888,61.5374152 428.466888,63.8624152 C427.197888,66.1884152 422.247888,68.3854152 422.247888,68.3854152 C422.247888,68.3854152 431.171888,66.5854152 428.000888,67.8534152 C424.830888,69.1224152 421.812888,69.9934152 421.812888,69.9934152 L419.347888,69.9934152 C419.347888,69.9934152 410.920888,65.7654152 414.091888,66.3994152 C417.262888,67.0334152 418.953888,68.0904152 418.953888,68.0904152" id="Fill-132" fill="#C8D6FF"></path>
                    <path d="M623.419988,46.1209152 C623.419988,46.1209152 613.099988,35.4279152 615.995988,35.7499152 C618.892988,36.0719152 624.313988,44.0679152 624.313988,44.0679152 C624.313988,44.0679152 624.388988,26.4409152 626.963988,30.3029152 C629.538988,34.1649152 626.374988,44.1409152 626.374988,44.1409152 C626.374988,44.1409152 633.735988,32.6589152 633.718988,34.5339152 C633.667988,40.3359152 628.047988,44.8749152 628.047988,44.8749152 C628.047988,44.8749152 639.833988,36.1439152 637.902988,39.6839152 C635.971988,43.2239152 628.435988,46.5699152 628.435988,46.5699152 C628.435988,46.5699152 642.022988,43.8289152 637.194988,45.7609152 C632.366988,47.6919152 627.772988,49.0179152 627.772988,49.0179152 L624.019988,49.0179152 C624.019988,49.0179152 611.189988,42.5809152 616.016988,43.5459152 C620.844988,44.5119152 623.419988,46.1209152 623.419988,46.1209152" id="Fill-134" fill="#C8D6FF"></path>
                    <path d="M8.48828817,46.1209152 C8.48828817,46.1209152 -1.83171183,35.4279152 1.06528817,35.7499152 C3.96128817,36.0719152 9.38228817,44.0679152 9.38228817,44.0679152 C9.38228817,44.0679152 9.45728817,26.4409152 12.0322882,30.3029152 C14.6072882,34.1649152 11.4432882,44.1409152 11.4432882,44.1409152 C11.4432882,44.1409152 18.8042882,32.6589152 18.7872882,34.5339152 C18.7362882,40.3359152 13.1162882,44.8749152 13.1162882,44.8749152 C13.1162882,44.8749152 24.9022882,36.1439152 22.9712882,39.6839152 C21.0402882,43.2239152 13.5042882,46.5699152 13.5042882,46.5699152 C13.5042882,46.5699152 27.0912882,43.8289152 22.2632882,45.7609152 C17.4352882,47.6919152 12.8422882,49.0179152 12.8422882,49.0179152 L9.08828817,49.0179152 C9.08828817,49.0179152 -3.74171183,42.5809152 1.08628817,43.5459152 C5.91328817,44.5119152 8.48828817,46.1209152 8.48828817,46.1209152" id="Fill-136" fill="#C8D6FF"></path>
                    <path d="M59.3970882,31.0230152 C59.3970882,31.0230152 48.8360882,12.8100152 51.8480882,11.4040152 C54.8600882,9.99801523 61.0860882,23.8560152 61.0860882,23.8560152 C61.0860882,23.8560152 59.8810882,-2.25198477 62.6930882,0.157015234 C65.5040882,2.56701523 68.1150882,21.0440152 68.1150882,21.0440152 C68.1150882,21.0440152 73.7390882,0.961015234 75.5460882,5.17801523 C77.3540882,9.39601523 74.1010882,22.1570152 74.1010882,22.1570152 C74.1010882,22.1570152 82.1730882,6.78501523 82.9770882,11.8060152 C83.7800882,16.8260152 79.1610882,25.0600152 79.1610882,25.0600152 C79.1610882,25.0600152 89.8050882,14.4160152 90.6080882,18.6340152 C91.4120882,22.8510152 87.7970882,27.0690152 87.7970882,27.0690152 C87.7970882,27.0690152 101.855088,19.4370152 98.4410882,23.6550152 C95.0270882,27.8720152 90.0060882,33.2940152 90.0060882,33.2940152 C90.0060882,33.2940152 103.461088,28.4750152 101.855088,31.2860152 C100.248088,34.0980152 94.2230882,37.1100152 94.2230882,37.1100152 C94.2230882,37.1100152 105.269088,35.1020152 104.064088,36.9100152 C102.859088,38.7170152 100.054088,40.4920152 100.054088,40.4920152 L50.0410882,40.4920152 C50.0410882,40.4920152 36.7860882,35.7050152 42.0070882,35.3030152 C47.2290882,34.9010152 52.0490882,37.1100152 52.0490882,37.1100152 C52.0490882,37.1100152 35.7820882,26.0650152 43.4130882,25.2610152 C51.0450882,24.4580152 57.2700882,34.0980152 57.2700882,34.0980152 C57.2700882,34.0980152 46.4260882,18.8350152 50.2410882,21.2450152 L59.3970882,31.0230152 Z" id="Fill-138" fill="#C8D6FF"></path>
                    <path d="M60.0773882,36.2044152 C60.0773882,36.2044152 46.4413882,22.0764152 50.2683882,22.5014152 C54.0963882,22.9264152 61.2583882,33.4914152 61.2583882,33.4914152 C61.2583882,33.4914152 61.3573882,10.2014152 64.7603882,15.3044152 C68.1623882,20.4074152 63.9823882,33.5884152 63.9823882,33.5884152 C63.9823882,33.5884152 73.7073882,18.4164152 73.6863882,20.8944152 C73.6183882,28.5614152 66.1923882,34.5574152 66.1923882,34.5574152 C66.1923882,34.5574152 81.7663882,23.0214152 79.2143882,27.6994152 C76.6623882,32.3774152 66.7053882,36.7984152 66.7053882,36.7984152 C66.7053882,36.7984152 84.6573882,33.1764152 78.2783882,35.7284152 C71.8993882,38.2794152 65.8293882,40.0314152 65.8293882,40.0314152 L60.8693882,40.0314152 C60.8693882,40.0314152 43.9173882,31.5264152 50.2963882,32.8024152 C56.6753882,34.0784152 60.0773882,36.2044152 60.0773882,36.2044152" id="Fill-140" fill="#263238"></path>
                    <path d="M60.0773882,36.2044152 C60.0773882,36.2044152 46.4413882,22.0764152 50.2683882,22.5014152 C54.0963882,22.9264152 61.2583882,33.4914152 61.2583882,33.4914152 C61.2583882,33.4914152 61.3573882,10.2014152 64.7603882,15.3044152 C68.1623882,20.4074152 63.9823882,33.5884152 63.9823882,33.5884152 C63.9823882,33.5884152 73.7073882,18.4164152 73.6863882,20.8944152 C73.6183882,28.5614152 66.1923882,34.5574152 66.1923882,34.5574152 C66.1923882,34.5574152 81.7663882,23.0214152 79.2143882,27.6994152 C76.6623882,32.3774152 66.7053882,36.7984152 66.7053882,36.7984152 C66.7053882,36.7984152 84.6573882,33.1764152 78.2783882,35.7284152 C71.8993882,38.2794152 65.8293882,40.0314152 65.8293882,40.0314152 L60.8693882,40.0314152 C60.8693882,40.0314152 43.9173882,31.5264152 50.2963882,32.8024152 C56.6753882,34.0784152 60.0773882,36.2044152 60.0773882,36.2044152 Z" id="Stroke-142" stroke="#263238"></path>
                    <path d="M509.152888,63.0677152 C509.152888,63.0677152 489.190888,28.6427152 494.883888,25.9857152 C500.577888,23.3287152 512.345888,49.5197152 512.345888,49.5197152 C512.345888,49.5197152 510.067888,0.173715234 515.381888,4.72871523 C520.696888,9.28371523 525.630888,44.2057152 525.630888,44.2057152 C525.630888,44.2057152 536.259888,6.24671523 539.675888,14.2177152 C543.092888,22.1897152 536.944888,46.3097152 536.944888,46.3097152 C536.944888,46.3097152 552.202888,17.2547152 553.720888,26.7447152 C555.238888,36.2347152 546.508888,51.7977152 546.508888,51.7977152 C546.508888,51.7977152 566.626888,31.6797152 568.145888,39.6507152 C569.663888,47.6217152 562.830888,55.5937152 562.830888,55.5937152 C562.830888,55.5937152 589.402888,41.1697152 582.949888,49.1407152 C576.496888,57.1117152 567.006888,67.3607152 567.006888,67.3607152 C567.006888,67.3607152 592.438888,58.2507152 589.402888,63.5647152 C586.365888,68.8797152 574.977888,74.5727152 574.977888,74.5727152 C574.977888,74.5727152 595.855888,70.7777152 593.577888,74.1937152 C591.300888,77.6097152 585.998888,80.9637152 585.998888,80.9637152 L491.467888,80.9637152 C491.467888,80.9637152 466.414888,71.9157152 476.284888,71.1567152 C486.153888,70.3977152 495.263888,74.5727152 495.263888,74.5727152 C495.263888,74.5727152 464.516888,53.6957152 478.941888,52.1777152 C493.365888,50.6587152 505.132888,68.8797152 505.132888,68.8797152 C505.132888,68.8797152 484.635888,40.0307152 491.847888,44.5857152 L509.152888,63.0677152 Z" id="Fill-144" fill="#C8D6FF"></path>
                    <path d="M510.438588,72.8610152 C510.438588,72.8610152 484.664588,46.1570152 491.899588,46.9610152 C499.133588,47.7640152 512.671588,67.7330152 512.671588,67.7330152 C512.671588,67.7330152 512.858588,23.7120152 519.289588,33.3570152 C525.719588,43.0030152 517.818588,67.9170152 517.818588,67.9170152 C517.818588,67.9170152 536.201588,39.2400152 536.159588,43.9240152 C536.032588,58.4140152 521.996588,69.7480152 521.996588,69.7480152 C521.996588,69.7480152 551.432588,47.9430152 546.609588,56.7850152 C541.786588,65.6270152 522.965588,73.9830152 522.965588,73.9830152 C522.965588,73.9830152 556.897588,67.1380152 544.840588,71.9610152 C532.783588,76.7840152 521.311588,80.0950152 521.311588,80.0950152 L511.935588,80.0950152 C511.935588,80.0950152 479.894588,64.0190152 491.951588,66.4310152 C504.008588,68.8420152 510.438588,72.8610152 510.438588,72.8610152" id="Fill-146" fill="#263238"></path>
                    <path d="M510.438588,72.8610152 C510.438588,72.8610152 484.664588,46.1570152 491.899588,46.9610152 C499.133588,47.7640152 512.671588,67.7330152 512.671588,67.7330152 C512.671588,67.7330152 512.858588,23.7120152 519.289588,33.3570152 C525.719588,43.0030152 517.818588,67.9170152 517.818588,67.9170152 C517.818588,67.9170152 536.201588,39.2400152 536.159588,43.9240152 C536.032588,58.4140152 521.996588,69.7480152 521.996588,69.7480152 C521.996588,69.7480152 551.432588,47.9430152 546.609588,56.7850152 C541.786588,65.6270152 522.965588,73.9830152 522.965588,73.9830152 C522.965588,73.9830152 556.897588,67.1380152 544.840588,71.9610152 C532.783588,76.7840152 521.311588,80.0950152 521.311588,80.0950152 L511.935588,80.0950152 C511.935588,80.0950152 479.894588,64.0190152 491.951588,66.4310152 C504.008588,68.8420152 510.438588,72.8610152 510.438588,72.8610152 Z" id="Stroke-148" stroke="#263238"></path>
                </g>
                <g id="Group-187" transform="translate(92.068300, 328.297542)">
                    <path d="M27.9123,13.4359647 C27.9123,13.4359647 29.9543,11.5899647 31.7053,11.5899647 C33.4563,11.5899647 38.8053,14.1609647 38.8053,14.1609647 C38.8053,14.1609647 40.9453,17.4569647 41.1393,17.6549647 C41.3343,17.8529647 43.9593,18.9739647 44.1543,19.4349647 C44.3493,19.8969647 44.7383,21.4129647 44.7383,21.4129647 L28.3983,21.4129647 L25.3833,13.5019647 L27.9123,13.4359647 Z" id="Fill-151" fill="#FFFFFF"></path>
                    <path d="M27.9123,13.4359647 C27.9123,13.4359647 29.9543,11.5899647 31.7053,11.5899647 C33.4563,11.5899647 38.8053,14.1609647 38.8053,14.1609647 C38.8053,14.1609647 40.9453,17.4569647 41.1393,17.6549647 C41.3343,17.8529647 43.9593,18.9739647 44.1543,19.4349647 C44.3493,19.8969647 44.7383,21.4129647 44.7383,21.4129647 L28.3983,21.4129647 L25.3833,13.5019647 L27.9123,13.4359647 Z" id="Stroke-153" stroke="#263238"></path>
                    <path d="M31.7053,11.5899647 L31.6083,13.1459647 C31.6083,13.1459647 35.7903,15.5779647 35.6933,16.4529647 C35.5953,17.3279647 34.7203,19.3709647 34.7203,19.3709647 L36.8603,21.6079647 L25.4813,21.6079647 L26.3563,14.8969647 C26.3563,14.8969647 28.7873,11.3949647 31.7053,11.5899647" id="Fill-155" fill="#263238"></path>
                    <path d="M6.613,12.4652647 C6.613,12.4652647 14.783,0.211264714 16.631,0.0162647143 C18.478,-0.177735286 22.369,1.37826471 23.828,3.90626471 C25.286,6.43526471 26.648,11.3952647 26.745,11.6872647 C26.843,11.9792647 27.231,12.1732647 29.468,15.7722647 C31.705,19.3702647 31.608,21.4132647 31.608,21.4132647 L0,21.4132647 C0,21.4132647 0.68,18.2032647 1.847,16.3552647 C3.015,14.5072647 5.738,13.8272647 5.738,13.8272647 L6.613,12.4652647 Z" id="Fill-157" fill="#FFFFFF"></path>
                    <path d="M6.613,12.4652647 C6.613,12.4652647 14.783,0.211264714 16.631,0.0162647143 C18.478,-0.177735286 22.369,1.37826471 23.828,3.90626471 C25.286,6.43526471 26.648,11.3952647 26.745,11.6872647 C26.843,11.9792647 27.231,12.1732647 29.468,15.7722647 C31.705,19.3702647 31.608,21.4132647 31.608,21.4132647 L0,21.4132647 C0,21.4132647 0.68,18.2032647 1.847,16.3552647 C3.015,14.5072647 5.738,13.8272647 5.738,13.8272647 L6.613,12.4652647 Z" id="Stroke-159" stroke="#263238"></path>
                    <path d="M19.1592,21.2183647 C19.1592,21.2183647 18.2842,19.0783647 18.1862,18.7873647 C18.0892,18.4953647 18.0892,15.6743647 17.7972,14.5073647 C17.5062,13.3403647 15.0742,9.74236471 15.0742,9.74236471 L16.8252,4.68436471 L15.9492,4.00436471 L17.4082,0.405364714 L16.5922,0.0273647143 C14.6772,0.371364714 6.6132,12.4653647 6.6132,12.4653647 L5.7382,13.8263647 C5.7382,13.8263647 3.0142,14.5073647 1.8472,16.3553647 C0.8492,17.9353647 0.2082,20.5053647 0.0432,21.2183647 L19.1592,21.2183647 Z" id="Fill-161" fill="#263238"></path>
                    <path d="M342.9048,16.4838647 C342.9048,16.4838647 344.1858,15.3268647 345.2828,15.3268647 C346.3808,15.3268647 349.7348,16.9388647 349.7348,16.9388647 C349.7348,16.9388647 351.0758,19.0048647 351.1978,19.1298647 C351.3198,19.2538647 352.9668,19.9558647 353.0888,20.2458647 C353.2108,20.5348647 353.4548,21.4858647 353.4548,21.4858647 L343.2098,21.4858647 L341.3188,16.5248647 L342.9048,16.4838647 Z" id="Fill-163" fill="#FFFFFF"></path>
                    <path d="M342.9048,16.4838647 C342.9048,16.4838647 344.1858,15.3268647 345.2828,15.3268647 C346.3808,15.3268647 349.7348,16.9388647 349.7348,16.9388647 C349.7348,16.9388647 351.0758,19.0048647 351.1978,19.1298647 C351.3198,19.2538647 352.9668,19.9558647 353.0888,20.2458647 C353.2108,20.5348647 353.4548,21.4858647 353.4548,21.4858647 L343.2098,21.4858647 L341.3188,16.5248647 L342.9048,16.4838647 Z" id="Stroke-165" stroke="#263238"></path>
                    <path d="M345.2831,15.3264647 L345.2221,16.3024647 C345.2221,16.3024647 347.8441,17.8264647 347.7831,18.3754647 C347.7221,18.9244647 347.1731,20.2044647 347.1731,20.2044647 L348.5151,21.6074647 L341.3801,21.6074647 L341.9291,17.3994647 C341.9291,17.3994647 343.4541,15.2044647 345.2831,15.3264647" id="Fill-167" fill="#263238"></path>
                    <path d="M329.55,15.8752647 C329.55,15.8752647 334.672,8.19126471 335.831,8.07026471 C336.99,7.94826471 339.429,8.92326471 340.344,10.5092647 C341.258,12.0942647 342.112,15.2042647 342.173,15.3872647 C342.234,15.5702647 342.478,15.6922647 343.88,17.9482647 C345.283,20.2052647 345.222,21.4852647 345.222,21.4852647 L325.403,21.4852647 C325.403,21.4852647 325.83,19.4732647 326.562,18.3142647 C327.294,17.1562647 329.001,16.7292647 329.001,16.7292647 L329.55,15.8752647 Z" id="Fill-169" fill="#FFFFFF"></path>
                    <path d="M329.55,15.8752647 C329.55,15.8752647 334.672,8.19126471 335.831,8.07026471 C336.99,7.94826471 339.429,8.92326471 340.344,10.5092647 C341.258,12.0942647 342.112,15.2042647 342.173,15.3872647 C342.234,15.5702647 342.478,15.6922647 343.88,17.9482647 C345.283,20.2052647 345.222,21.4852647 345.222,21.4852647 L325.403,21.4852647 C325.403,21.4852647 325.83,19.4732647 326.562,18.3142647 C327.294,17.1562647 329.001,16.7292647 329.001,16.7292647 L329.55,15.8752647 Z" id="Stroke-171" stroke="#263238"></path>
                    <path d="M337.4166,21.3635647 C337.4166,21.3635647 336.8676,20.0215647 336.8066,19.8395647 C336.7456,19.6565647 336.7456,17.8875647 336.5626,17.1555647 C336.3796,16.4245647 334.8556,14.1675647 334.8556,14.1675647 L335.9526,10.9965647 L335.4046,10.5695647 L336.3186,8.31356471 L335.8066,8.07656471 C334.6056,8.29256471 329.5496,15.8755647 329.5496,15.8755647 L329.0016,16.7285647 C329.0016,16.7285647 327.2936,17.1555647 326.5616,18.3145647 C325.9366,19.3055647 325.5346,20.9165647 325.4306,21.3635647 L337.4166,21.3635647 Z" id="Fill-173" fill="#263238"></path>
                    <path d="M508.288,46.3988647 C508.288,46.3988647 512.148,42.9098647 515.457,42.9098647 C518.766,42.9098647 528.877,47.7698647 528.877,47.7698647 C528.877,47.7698647 532.921,53.9998647 533.288,54.3738647 C533.656,54.7478647 538.619,56.8658647 538.987,57.7378647 C539.355,58.6108647 540.09,61.4758647 540.09,61.4758647 L509.207,61.4758647 L503.509,46.5238647 L508.288,46.3988647 Z" id="Fill-175" fill="#FFFFFF"></path>
                    <path d="M508.288,46.3988647 C508.288,46.3988647 512.148,42.9098647 515.457,42.9098647 C518.766,42.9098647 528.877,47.7698647 528.877,47.7698647 C528.877,47.7698647 532.921,53.9998647 533.288,54.3738647 C533.656,54.7478647 538.619,56.8658647 538.987,57.7378647 C539.355,58.6108647 540.09,61.4758647 540.09,61.4758647 L509.207,61.4758647 L503.509,46.5238647 L508.288,46.3988647 Z" id="Stroke-177" stroke="#263238"></path>
                    <path d="M515.4572,42.9098647 L515.2732,45.8508647 C515.2732,45.8508647 523.1782,50.4468647 522.9942,52.1008647 C522.8102,53.7558647 521.1562,57.6158647 521.1562,57.6158647 L525.2002,61.8438647 L503.6922,61.8438647 L505.3472,49.1598647 C505.3472,49.1598647 509.9422,42.5418647 515.4572,42.9098647" id="Fill-179" fill="#263238"></path>
                    <path d="M468.03,44.5643647 C468.03,44.5643647 483.471,21.4023647 486.964,21.0343647 C490.457,20.6673647 497.81,23.6083647 500.567,28.3873647 C503.325,33.1673647 505.898,42.5423647 506.082,43.0933647 C506.266,43.6453647 507.001,44.0133647 511.229,50.8143647 C515.457,57.6163647 515.273,61.4763647 515.273,61.4763647 L455.53,61.4763647 C455.53,61.4763647 456.817,55.4103647 459.023,51.9173647 C461.228,48.4243647 466.376,47.1383647 466.376,47.1383647 L468.03,44.5643647 Z" id="Fill-181" fill="#FFFFFF"></path>
                    <path d="M468.03,44.5643647 C468.03,44.5643647 483.471,21.4023647 486.964,21.0343647 C490.457,20.6673647 497.81,23.6083647 500.567,28.3873647 C503.325,33.1673647 505.898,42.5423647 506.082,43.0933647 C506.266,43.6453647 507.001,44.0133647 511.229,50.8143647 C515.457,57.6163647 515.273,61.4763647 515.273,61.4763647 L455.53,61.4763647 C455.53,61.4763647 456.817,55.4103647 459.023,51.9173647 C461.228,48.4243647 466.376,47.1383647 466.376,47.1383647 L468.03,44.5643647 Z" id="Stroke-183" stroke="#263238"></path>
                    <path d="M491.7437,61.1086647 C491.7437,61.1086647 490.0897,57.0646647 489.9057,56.5126647 C489.7217,55.9616647 489.7217,50.6306647 489.1697,48.4246647 C488.6187,46.2186647 484.0227,39.4176647 484.0227,39.4176647 L487.3317,29.8586647 L485.6777,28.5716647 L488.4347,21.7696647 L486.8907,21.0546647 C483.2717,21.7046647 468.0297,44.5646647 468.0297,44.5646647 L466.3757,47.1376647 C466.3757,47.1376647 461.2287,48.4246647 459.0227,51.9176647 C457.1367,54.9046647 455.9247,59.7606647 455.6127,61.1086647 L491.7437,61.1086647 Z" id="Fill-185" fill="#263238"></path>
                </g>
            </g>
        </g>
    </g>
</svg>