<?xml version="1.0" encoding="UTF-8" standalone="no"?>
<!DOCTYPE svg PUBLIC "-//W3C//DTD SVG 1.1//EN" "http://www.w3.org/Graphics/SVG/1.1/DTD/svg11.dtd">
<svg width="100%" height="100%" viewBox="0 0 403 72" version="1.1" xmlns="http://www.w3.org/2000/svg" xmlns:xlink="http://www.w3.org/1999/xlink" xml:space="preserve" xmlns:serif="http://www.serif.com/" style="fill-rule:evenodd;clip-rule:evenodd;stroke-linejoin:round;stroke-miterlimit:2;">
    <g transform="matrix(1,0,0,1,-324.024,-121.325)">
        <g transform="matrix(1.39558,0,0,1.39558,0,0)">
            <g transform="matrix(0.330434,0,0,0.330434,-1586.61,-908.414)">
                <g transform="matrix(1,0,0,1,5624.22,3009.77)">
                    <path d="M-55.578,157.594L55.578,157.594C64.303,157.594 70.196,148.686 66.783,140.656L11.206,9.885C7.005,0 -7.005,0 -11.206,9.885L-66.783,140.656C-70.196,148.686 -64.303,157.594 -55.578,157.594Z" style="fill:rgb(78,115,222);fill-rule:nonzero;"/>
                </g>
                <g transform="matrix(1,0,0,1,5572,3009.77)">
                    <path d="M-55.578,157.594L55.578,157.594C64.303,157.594 70.196,148.686 66.783,140.656L11.206,9.885C7.005,0 -7.005,0 -11.206,9.885L-66.783,140.656C-70.196,148.686 -64.303,157.594 -55.578,157.594Z" style="fill:white;fill-rule:nonzero;"/>
                </g>
                <g transform="matrix(1,0,0,1,4994.81,2581.88)">
                    <g opacity="0.2">
                        <g transform="matrix(1,0,0,1,643.982,489.766)">
                            <path d="M0,78.778L-40.681,-16.941L-81.362,78.778C-84.775,86.81 -78.881,95.719 -70.154,95.719L-11.208,95.719C-2.481,95.719 3.413,86.81 0,78.778" style="fill:rgb(78,115,222);fill-rule:nonzero;"/>
                        </g>
                    </g>
                </g>
                <g transform="matrix(1,0,0,1,5788.86,3123.15)">
                    <path d="M0,-54.322C-7.005,-54.322 -12.807,-52.347 -17.406,-48.396C-22.01,-44.442 -24.859,-39.167 -25.961,-32.564L24.158,-32.564C23.056,-39.665 20.257,-45.067 15.756,-48.771C11.254,-52.47 6.002,-54.322 0,-54.322M-25.961,-21.16C-24.659,-14.458 -21.585,-9.253 -16.732,-5.554C-11.881,-1.853 -5.903,-0.003 1.202,-0.003C11.105,-0.003 18.306,-3.652 22.807,-10.955L33.912,-4.654C26.608,6.653 15.606,12.303 0.9,12.303C-11.005,12.303 -20.685,8.578 -28.135,1.122C-35.588,-6.328 -39.313,-15.759 -39.313,-27.163C-39.313,-38.467 -35.664,-47.868 -28.361,-55.371C-21.06,-62.874 -11.606,-66.625 0,-66.625C11.002,-66.625 19.982,-62.748 26.934,-54.996C33.885,-47.244 37.364,-37.916 37.364,-27.013C37.364,-25.111 37.215,-23.159 36.913,-21.16L-25.961,-21.16Z" style="fill:white;fill-rule:nonzero;"/>
                </g>
                <g transform="matrix(1,0,0,1,5864.49,3113.47)">
                    <path d="M0,-34.961C0,-32.124 1.474,-29.85 4.42,-28.138C7.365,-26.427 10.876,-24.97 14.956,-23.774C19.029,-22.576 23.13,-21.371 27.253,-20.161C31.38,-18.95 34.87,-16.679 37.728,-13.35C40.585,-10.02 42.015,-5.747 42.015,-0.525C42.015,6.278 39.389,11.729 34.138,15.832C28.886,19.935 22.157,21.984 13.956,21.984C6.653,21.984 0.399,20.381 -4.801,17.18C-10.003,13.98 -13.707,9.73 -15.905,4.426L-4.651,-2.025C-3.45,1.577 -1.199,4.426 2.101,6.527C5.401,8.628 9.352,9.677 13.956,9.677C18.256,9.677 21.808,8.857 24.61,7.207C27.409,5.56 28.812,2.987 28.812,-0.51C28.812,-3.405 27.359,-5.727 24.454,-7.473C21.55,-9.223 18.059,-10.709 13.983,-11.931C9.906,-13.156 5.806,-14.387 1.685,-15.624C-2.441,-16.864 -5.952,-19.079 -8.854,-22.283C-11.755,-25.483 -13.203,-29.583 -13.203,-34.589C-13.203,-41.089 -10.68,-46.441 -5.627,-50.644C-0.577,-54.846 5.753,-56.945 13.355,-56.945C19.457,-56.945 24.885,-55.57 29.636,-52.818C34.387,-50.066 37.965,-46.242 40.365,-41.341L29.41,-35.187C26.711,-41.587 21.356,-44.791 13.355,-44.791C9.654,-44.791 6.503,-43.935 3.901,-42.223C1.298,-40.512 0,-38.091 0,-34.961" style="fill:white;fill-rule:nonzero;"/>
                </g>
                <g transform="matrix(1,0,0,1,5970.13,3056.52)">
                    <path d="M0,78.928C-11.304,78.928 -20.706,75.153 -28.209,67.598C-35.711,60.045 -39.463,50.667 -39.463,39.462C-39.463,28.261 -35.711,18.883 -28.209,11.327C-20.706,3.774 -11.304,0 0,0C7.403,0 14.053,1.776 19.958,5.325C25.858,8.877 30.26,13.654 33.162,19.656L22.209,25.957C20.307,21.957 17.382,18.756 13.432,16.353C9.478,13.953 5.003,12.754 0,12.754C-7.503,12.754 -13.78,15.304 -18.83,20.407C-23.883,25.509 -26.409,31.863 -26.409,39.462C-26.409,46.965 -23.883,53.269 -18.83,58.369C-13.78,63.471 -7.503,66.024 0,66.024C5.003,66.024 9.504,64.849 13.505,62.495C17.505,60.148 20.559,56.971 22.658,52.967L33.762,59.421C30.559,65.323 25.961,70.051 19.958,73.6C13.956,77.149 7.301,78.928 0,78.928" style="fill:white;fill-rule:nonzero;"/>
                </g>
                <g transform="matrix(1,0,0,1,6066.16,3069.13)">
                    <path d="M0,53.718C7.602,53.718 13.956,51.145 19.059,45.99C24.161,40.84 26.711,34.463 26.711,26.858C26.711,19.258 24.161,12.881 19.059,7.726C13.956,2.576 7.602,-0.003 0,-0.003C-7.503,-0.003 -13.804,2.576 -18.906,7.726C-24.009,12.881 -26.559,19.258 -26.559,26.858C-26.559,34.463 -24.009,40.84 -18.906,45.99C-13.804,51.145 -7.503,53.718 0,53.718M26.711,-10.656L39.765,-10.656L39.765,64.371L26.711,64.371L26.711,51.467C20.208,61.37 10.753,66.323 -1.65,66.323C-12.154,66.323 -21.107,62.496 -28.51,54.843C-35.914,47.191 -39.612,37.863 -39.612,26.858C-39.612,15.855 -35.914,6.527 -28.51,-1.128C-21.107,-8.781 -12.154,-12.605 -1.65,-12.605C10.753,-12.605 20.208,-7.655 26.711,2.248L26.711,-10.656Z" style="fill:white;fill-rule:nonzero;"/>
                </g>
                <g transform="matrix(1,0,0,1,4994.81,2559.73)">
                    <rect x="1145.93" y="464.227" width="13.057" height="109.54" style="fill:white;"/>
                </g>
                <g transform="matrix(1,0,0,1,6224.17,3069.13)">
                    <path d="M0,53.718C7.602,53.718 13.956,51.145 19.059,45.99C24.161,40.84 26.711,34.463 26.711,26.858C26.711,19.258 24.161,12.881 19.059,7.726C13.956,2.576 7.602,-0.003 0,-0.003C-7.503,-0.003 -13.804,2.576 -18.906,7.726C-24.009,12.881 -26.559,19.258 -26.559,26.858C-26.559,34.463 -24.009,40.84 -18.906,45.99C-13.804,51.145 -7.503,53.718 0,53.718M26.711,-10.656L39.765,-10.656L39.765,64.371L26.711,64.371L26.711,51.467C20.208,61.37 10.753,66.323 -1.65,66.323C-12.154,66.323 -21.107,62.496 -28.51,54.843C-35.914,47.191 -39.612,37.863 -39.612,26.858C-39.612,15.855 -35.914,6.527 -28.51,-1.128C-21.107,-8.781 -12.154,-12.605 -1.65,-12.605C10.753,-12.605 20.208,-7.655 26.711,2.248L26.711,-10.656Z" style="fill:white;fill-rule:nonzero;"/>
                </g>
                <g transform="matrix(1,0,0,1,6338.51,3041.06)">
                    <path d="M0,81.78C7.503,81.78 13.807,79.207 18.906,74.052C24.009,68.902 26.562,62.525 26.562,54.92C26.562,47.32 24.009,40.943 18.906,35.788C13.807,30.638 7.503,28.059 0,28.059C-7.602,28.059 -13.953,30.638 -19.056,35.788C-24.158,40.943 -26.708,47.32 -26.708,54.92C-26.708,62.525 -24.158,68.902 -19.056,74.052C-13.953,79.207 -7.602,81.78 0,81.78M1.65,15.457C12.154,15.457 21.107,19.281 28.51,26.934C35.914,34.589 39.615,43.917 39.615,54.92C39.615,65.925 35.914,75.253 28.51,82.905C21.107,90.558 12.154,94.385 1.65,94.385C-10.753,94.385 -20.208,89.432 -26.708,79.529L-26.708,92.433L-39.765,92.433L-39.765,-12.605L-26.708,-12.605L-26.708,30.31C-20.208,20.407 -10.753,15.457 1.65,15.457" style="fill:white;fill-rule:nonzero;"/>
                </g>
            </g>
        </g>
    </g>
</svg>
