<?xml version="1.0" encoding="UTF-8"?>
<svg width="128px" height="28px" viewBox="0 0 128 28" version="1.1" xmlns="http://www.w3.org/2000/svg" xmlns:xlink="http://www.w3.org/1999/xlink">
    <title>Group 9</title>
    <defs>
        <polygon id="path-1" points="0 0 92.518022 0 92.518022 18.3350649 0 18.3350649"></polygon>
        <polygon id="path-3" points="0 28 128 28 128 0 0 0"></polygon>
    </defs>
    <g id="Landing-Talentos" stroke="none" stroke-width="1" fill="none" fill-rule="evenodd">
        <g id="Desktop-Home-Developers" transform="translate(-188.000000, -661.000000)">
            <g id="Group-9" transform="translate(188.000000, 661.000000)">
                <g id="Group-3" transform="translate(35.481978, 4.357738)">
                    <mask id="mask-2" fill="white">
                        <use xlink:href="#path-1"></use>
                    </mask>
                    <g id="Clip-2"></g>
                    <path d="M86.9447266,8.3181755 L82.8285468,8.3181755 L82.8285468,18.0422234 L80.0308486,18.0422234 L80.0308486,8.3181755 L78.0663944,8.3181755 L78.0663944,5.99838884 L80.0308486,5.99838884 L80.0308486,4.32300897 C80.0308486,3.05752938 80.4323069,2.0207228 81.2356027,1.21258924 C82.0388984,0.40406678 83.068512,0 84.3248225,0 C84.6595607,0 84.9563896,0.0175004861 85.2156885,0.0525014584 C85.4742292,0.0878913303 85.7028216,0.140781688 85.9007075,0.210783633 L85.9007075,2.65929609 C85.8093464,2.60485013 85.6493696,2.53834829 85.4211563,2.46017945 C85.1925639,2.38239951 84.9298532,2.34312064 84.6334033,2.34312064 C84.0541509,2.34312064 83.609097,2.5286258 83.2967253,2.8996361 C82.9843536,3.27064641 82.8285468,3.81938387 82.8285468,4.5454596 L82.8285468,5.99838884 L86.9447266,5.99838884 L86.9447266,3.29203589 L89.7200584,2.42517848 L89.7200584,5.99838884 L92.5181357,5.99838884 L92.5181357,8.3181755 L89.7200584,8.3181755 L89.7200584,13.953332 C89.7200584,14.6957415 89.8512242,15.2188116 90.1139349,15.5233201 C90.3766456,15.8278286 90.7894766,15.9802772 91.3531863,15.9802772 C91.512784,15.9802772 91.7049836,15.9413873 91.9297851,15.8632184 C92.1542075,15.7850496 92.350198,15.6917137 92.5181357,15.5820439 L92.5181357,17.9251646 C92.3426161,18.0266674 92.0514736,18.1203922 91.6443289,18.2063391 C91.2371842,18.2922859 90.8353468,18.3350649 90.4395748,18.3350649 C89.2742463,18.3350649 88.4008186,18.0173338 87.8185334,17.3803161 C87.2358692,16.7436873 86.9447266,15.7850496 86.9447266,14.504014 L86.9447266,8.3181755 Z M68.5940252,12.1025584 C68.5940252,13.3598711 68.8718995,14.3204533 69.4276482,14.984694 C69.983397,15.6485458 70.7791109,15.9802772 71.8144108,15.9802772 C72.8197625,15.9802772 73.58477,15.6485458 74.1098123,14.984694 C74.6352336,14.3204533 74.8979443,13.3365371 74.8979443,12.0321676 C74.8979443,10.735576 74.6257563,9.75749326 74.0813804,9.09714159 C73.5370044,8.43717881 72.7735133,8.10739187 71.7916653,8.10739187 C70.7791109,8.10739187 69.9928743,8.4527348 69.4333346,9.14419845 C68.873795,9.8352732 68.5940252,10.8215228 68.5940252,12.1025584 L68.5940252,12.1025584 Z M65.7159595,12.1958943 C65.7159595,10.204339 66.2641264,8.62696186 67.3604601,7.46298508 C68.4567939,6.29900831 69.979606,5.71721437 71.9285175,5.71721437 C73.7637014,5.71721437 75.1966687,6.27761882 76.2285569,7.39842773 C77.2600659,8.51962555 77.77601,10.0328342 77.77601,11.9384427 C77.77601,13.8911081 77.227464,15.4455402 76.1315093,16.60135 C75.0351756,17.7575488 73.5426908,18.3350649 71.654434,18.3350649 C69.8347929,18.3350649 68.3900737,17.7867163 67.3206555,16.6892414 C66.2508581,15.5921553 65.7159595,14.0941137 65.7159595,12.1958943 L65.7159595,12.1958943 Z M59.4924078,9.16169894 C59.4924078,9.56809911 59.6178872,9.88621906 59.8692251,10.1168366 C60.120184,10.3470652 60.6759327,10.6379622 61.5364713,10.9891386 C62.6403869,11.4425956 63.4152507,11.9520542 63.8606837,12.5182922 C64.3061167,13.0845301 64.5286437,13.7701603 64.5286437,14.5744048 C64.5286437,15.7068807 64.1040607,16.616906 63.255274,17.3040918 C62.4061081,17.9916664 61.2585969,18.3350649 59.8119823,18.3350649 C59.3248492,18.3350649 58.7861596,18.2747854 58.1959135,18.1534487 C57.6060465,18.0325009 57.1052661,17.8784966 56.6943305,17.6906581 L56.6943305,14.9026362 C57.1970064,15.2619795 57.7372123,15.5466541 58.3160856,15.7574377 C58.8945799,15.9686102 59.4196222,16.0740021 59.8919707,16.0740021 C60.516335,16.0740021 60.9769317,15.9841662 61.2737606,15.8044946 C61.5709687,15.6252118 61.7191936,15.3242035 61.7191936,14.9026362 C61.7191936,14.511792 61.5652823,14.1820051 61.2567015,13.9124976 C60.9484998,13.6429901 60.3639401,13.3322592 59.5037806,12.9810828 C58.4836443,12.5435707 57.7603369,12.0516125 57.3338585,11.5048196 C56.9073801,10.9580266 56.6943305,10.2630629 56.6943305,9.41953943 C56.6943305,8.33373149 57.1147434,7.4415956 57.9563274,6.74235395 C58.7971533,6.04350121 59.8881797,5.69388039 61.2282696,5.69388039 C61.6392052,5.69388039 62.100181,5.74054835 62.6100596,5.83427317 C63.1203173,5.9283869 63.5464165,6.0493347 63.8891156,6.19750549 L63.8891156,8.89219145 C63.523671,8.64212895 63.0971926,8.42784522 62.6100596,8.24778466 C62.1225474,8.068113 61.6392052,7.97827717 61.159654,7.97827717 C60.6342326,7.97827717 60.2248133,8.08366899 59.9321544,8.29445262 C59.6387373,8.50562516 59.4924078,8.79457763 59.4924078,9.16169894 L59.4924078,9.16169894 Z M46.1991713,12.1025584 C46.1991713,13.3598711 46.4770457,14.3204533 47.0331735,14.984694 C47.5885431,15.6485458 48.384257,15.9802772 49.419557,15.9802772 C50.4249087,15.9802772 51.1899162,15.6485458 51.7149584,14.984694 C52.2403798,14.3204533 52.5030905,13.3365371 52.5030905,12.0321676 C52.5030905,10.735576 52.2309025,9.75749326 51.6865265,9.09714159 C51.1421506,8.43717881 50.3790386,8.10739187 49.3971906,8.10739187 C48.384257,8.10739187 47.5983995,8.4527348 47.0384808,9.14419845 C46.4789411,9.8352732 46.1991713,10.8215228 46.1991713,12.1025584 L46.1991713,12.1025584 Z M43.3211056,12.1958943 C43.3211056,10.204339 43.8692725,8.62696186 44.9656063,7.46298508 C46.0623192,6.29900831 47.5847522,5.71721437 49.5340427,5.71721437 C51.3688475,5.71721437 52.802194,6.27761882 53.833703,7.39842773 C54.8652121,8.51962555 55.3811562,10.0328342 55.3811562,11.9384427 C55.3811562,13.8911081 54.8329893,15.4455402 53.7366555,16.60135 C52.6403218,17.7575488 51.148216,18.3350649 49.2599593,18.3350649 C47.4399391,18.3350649 45.995599,17.7867163 44.9258016,16.6892414 C43.8560043,15.5921553 43.3211056,14.0941137 43.3211056,12.1958943 L43.3211056,12.1958943 Z M42.1322735,5.7992722 C42.3529049,5.7992722 42.55117,5.81521709 42.7263105,5.84632906 C42.9014509,5.87744104 43.0496758,5.91633101 43.1717434,5.96338787 L43.1717434,8.8334676 C43.0269303,8.72418678 42.8157761,8.62112836 42.5379018,8.52312564 C42.2600274,8.42551182 41.9230147,8.37689936 41.5272428,8.37689936 C40.8494265,8.37689936 40.2766186,8.66974083 39.8084401,9.25542376 C39.3402616,9.8411067 39.1059828,10.743354 39.1059828,11.9617767 L39.1059828,18.0422234 L36.3420238,18.0422234 L36.3420238,5.99838884 L39.1059828,5.99838884 L39.1059828,7.89621934 L39.1514739,7.89621934 C39.4028118,7.24014556 39.7834201,6.72679797 40.2936778,6.35578766 C40.8039354,5.98516625 41.416548,5.7992722 42.1322735,5.7992722 L42.1322735,5.7992722 Z M31.5343804,15.9802772 C31.945316,15.9802772 32.3983308,15.8830523 32.8934248,15.6874358 C33.3881398,15.4922081 33.8449455,15.2347565 34.263842,14.9143032 L34.263842,17.5502653 C33.8222,17.8081058 33.3217987,18.0033334 32.7618799,18.1359482 C32.2027194,18.2689519 31.5874532,18.3350649 30.9175979,18.3350649 C29.1893179,18.3350649 27.7844033,17.7750493 26.7036123,16.6538515 C25.6224422,15.5334315 25.0818572,14.1018917 25.0818572,12.3603989 C25.0818572,10.4232895 25.633815,8.828023 26.7381097,7.57421039 C27.8416462,6.32039779 29.4061585,5.69388039 31.4316465,5.69388039 C31.949486,5.69388039 32.4726328,5.76232673 33.0018451,5.89883052 C33.5310574,6.03572321 33.9514703,6.19361649 34.263842,6.37328815 L34.263842,9.09130809 C33.8373637,8.77124365 33.4017871,8.52312564 32.955975,8.34734298 C32.5109211,8.17194922 32.0556317,8.08366899 31.5916233,8.08366899 C30.5028713,8.08366899 29.6233781,8.4469013 28.9535227,9.17336593 C28.2832883,9.89983055 27.948171,10.8798578 27.948171,12.1142254 C27.948171,13.3322592 28.269641,14.2815634 28.913339,14.9609711 C29.5566579,15.6407678 30.4304648,15.9802772 31.5343804,15.9802772 L31.5343804,15.9802772 Z M20.3883204,18.0422234 L23.1519003,18.0422234 L23.1519003,5.99838884 L20.3883204,5.99838884 L20.3883204,18.0422234 Z M20.1024851,2.5189033 C20.1024851,2.05027917 20.2681483,1.65787939 20.5994746,1.34131504 C20.9308009,1.02513959 21.3246774,0.866857413 21.7814831,0.866857413 C22.2686162,0.866857413 22.6723491,1.02902858 22.9919236,1.35298203 C23.3118771,1.67732437 23.4718539,2.06583516 23.4718539,2.5189033 C23.4718539,2.97974944 23.3077071,3.36631573 22.9805508,3.67860218 C22.6530154,3.99127754 22.2534525,4.14722631 21.7814831,4.14722631 C21.3091346,4.14722631 20.9114672,3.98933304 20.5881018,3.67315759 C20.2643574,3.35620434 20.1024851,2.97197144 20.1024851,2.5189033 L20.1024851,2.5189033 Z M17.7244417,1.24175672 L17.7244417,18.0422234 L14.8808733,18.0422234 L14.8808733,4.87369094 L14.8350032,4.87369094 L9.75289724,18.0422234 L7.86881051,18.0422234 L2.66084603,4.87369094 L2.62672776,4.87369094 L2.62672776,18.0422234 L0,18.0422234 L0,1.24175672 L4.07713335,1.24175672 L8.78242198,13.6958804 L8.85065852,13.6958804 L13.8186578,1.24175672 L17.7244417,1.24175672 Z" id="Fill-1" fill="#FFFFFF" mask="url(#mask-2)"></path>
                </g>
                <mask id="mask-4" fill="white">
                    <use xlink:href="#path-3"></use>
                </mask>
                <g id="Clip-5"></g>
                <polygon id="Fill-4" fill="#F25022" mask="url(#mask-4)" points="0 13.3077585 12.9717665 13.3077585 12.9717665 0.000388899692 0 0.000388899692"></polygon>
                <polygon id="Fill-6" fill="#7FBA00" mask="url(#mask-4)" points="14.3220919 13.3077585 27.2938584 13.3077585 27.2938584 0.000388899692 14.3220919 0.000388899692"></polygon>
                <polygon id="Fill-7" fill="#00A4EF" mask="url(#mask-4)" points="0 28 12.9717665 28 12.9717665 14.6926304 0 14.6926304"></polygon>
                <polygon id="Fill-8" fill="#FFB900" mask="url(#mask-4)" points="14.3220919 28 27.2938584 28 27.2938584 14.6926304 14.3220919 14.6926304"></polygon>
            </g>
        </g>
    </g>
</svg>