<?xml version="1.0" encoding="UTF-8" standalone="no"?>
<!DOCTYPE svg PUBLIC "-//W3C//DTD SVG 1.1//EN" "http://www.w3.org/Graphics/SVG/1.1/DTD/svg11.dtd">
<svg width="100%" height="100%" viewBox="0 0 414 100" version="1.1" xmlns="http://www.w3.org/2000/svg" xmlns:xlink="http://www.w3.org/1999/xlink" xml:space="preserve" xmlns:serif="http://www.serif.com/" style="fill-rule:evenodd;clip-rule:evenodd;stroke-linejoin:round;stroke-miterlimit:2;">
    <g transform="matrix(1,0,0,1,-898.83,-4072.98)">
        <g transform="matrix(1,0,0,1,-8.50008,3.63798e-12)">
            <g transform="matrix(1,0,0,1,64.0338,0)">
                <g transform="matrix(1,0,0,1,-202.465,333.163)">
                    <path d="M1066.14,3827.94C1067.35,3827.94 1068.38,3827.06 1068.57,3825.86C1069.38,3820.45 1071.56,3805.87 1072.61,3798.86C1072.94,3796.69 1074.87,3795.12 1077.06,3795.26C1095.99,3796.35 1126.62,3793.62 1122.84,3758.03C1121.49,3745.29 1110.65,3740.64 1093.87,3740.07C1082.23,3739.67 1070.07,3739.84 1063.96,3739.97C1061.64,3740.02 1059.7,3741.72 1059.33,3744.01C1056.96,3758.62 1048.72,3809.56 1046.38,3824C1046.23,3824.96 1046.5,3825.94 1047.13,3826.68C1047.76,3827.43 1048.68,3827.86 1049.65,3827.86C1054.44,3827.88 1062.38,3827.92 1066.14,3827.94Z" style="fill:white;"/>
                </g>
                <g transform="matrix(1,0,0,1,-202.465,333.163)">
                    <path d="M1127.03,3769.45C1131.26,3770.57 1135.78,3797.81 1115.1,3808.26C1111.11,3810.27 1106.72,3811.38 1102.25,3811.5C1100.41,3811.55 1098.14,3811.61 1096.3,3811.66C1094.35,3811.71 1092.7,3813.14 1092.38,3815.07C1091.47,3820.53 1089.68,3831.32 1088.87,3836.26C1088.62,3837.75 1087.33,3838.85 1085.82,3838.85C1082.17,3838.85 1075.71,3838.85 1073.02,3838.85C1072.71,3838.85 1072.42,3838.71 1072.22,3838.48C1072.02,3838.25 1071.94,3837.94 1071.98,3837.64C1072.91,3831.71 1076.97,3805.84 1077.72,3801.08C1077.78,3800.66 1078.17,3800.36 1078.6,3800.41C1083.19,3800.91 1107.29,3802.76 1118.19,3789.46C1122.19,3784.57 1125.3,3777.55 1127.03,3769.45Z" style="fill:white;"/>
                </g>
            </g>
            <g transform="matrix(1,0,0,1,64.0338,0)">
                <g transform="matrix(2.93028,0,0,2.93028,894.736,4077.67)">
                    <path d="M46.211,6.749L39.372,6.749C38.904,6.749 38.506,7.089 38.433,7.551L35.667,25.088C35.612,25.434 35.88,25.746 36.231,25.746L39.496,25.746C39.964,25.746 40.362,25.406 40.435,24.943L41.181,20.213C41.253,19.75 41.652,19.41 42.119,19.41L44.284,19.41C48.789,19.41 51.389,17.23 52.068,12.91C52.374,11.02 52.081,9.535 51.196,8.495C50.224,7.353 48.5,6.749 46.211,6.749ZM47,13.154C46.626,15.608 44.751,15.608 42.938,15.608L41.906,15.608L42.63,11.025C42.673,10.748 42.913,10.544 43.193,10.544L43.666,10.544C44.901,10.544 46.066,10.544 46.668,11.248C47.027,11.668 47.137,12.292 47,13.154Z" style="fill:white;fill-rule:nonzero;"/>
                </g>
                <g transform="matrix(2.93028,0,0,2.93028,894.736,4077.67)">
                    <path d="M66.654,13.075L63.379,13.075C63.1,13.075 62.859,13.279 62.816,13.556L62.671,14.472L62.442,14.14C61.733,13.111 60.152,12.767 58.574,12.767C54.955,12.767 51.864,15.508 51.262,19.353C50.949,21.271 51.394,23.105 52.482,24.384C53.48,25.56 54.908,26.05 56.607,26.05C59.523,26.05 61.14,24.175 61.14,24.175L60.994,25.085C60.939,25.433 61.207,25.745 61.556,25.745L64.506,25.745C64.975,25.745 65.371,25.405 65.445,24.942L67.215,13.733C67.271,13.388 67.004,13.075 66.654,13.075ZM62.089,19.449C61.773,21.32 60.288,22.576 58.394,22.576C57.443,22.576 56.683,22.271 56.195,21.693C55.711,21.119 55.527,20.302 55.681,19.392C55.976,17.537 57.486,16.24 59.351,16.24C60.281,16.24 61.037,16.549 61.535,17.132C62.034,17.721 62.232,18.543 62.089,19.449Z" style="fill:white;fill-rule:nonzero;"/>
                </g>
                <g transform="matrix(2.93028,0,0,2.93028,894.736,4077.67)">
                    <path d="M84.096,13.075L80.805,13.075C80.491,13.075 80.196,13.231 80.018,13.492L75.479,20.178L73.555,13.753C73.434,13.351 73.063,13.075 72.643,13.075L69.409,13.075C69.016,13.075 68.743,13.459 68.868,13.829L72.493,24.467L69.085,29.278C68.817,29.657 69.087,30.178 69.55,30.178L72.837,30.178C73.149,30.178 73.441,30.026 73.618,29.77L84.564,13.97C84.826,13.592 84.557,13.075 84.096,13.075Z" style="fill:white;fill-rule:nonzero;"/>
                </g>
                <g transform="matrix(2.93028,0,0,2.93028,894.736,4077.67)">
                    <path d="M94.992,6.749L88.152,6.749C87.685,6.749 87.287,7.089 87.214,7.551L84.448,25.088C84.393,25.434 84.661,25.746 85.01,25.746L88.52,25.746C88.846,25.746 89.125,25.508 89.176,25.184L89.961,20.213C90.033,19.75 90.432,19.41 90.899,19.41L93.063,19.41C97.569,19.41 100.168,17.23 100.848,12.91C101.155,11.02 100.86,9.535 99.975,8.495C99.004,7.353 97.281,6.749 94.992,6.749ZM95.781,13.154C95.408,15.608 93.533,15.608 91.719,15.608L90.688,15.608L91.413,11.025C91.456,10.748 91.694,10.544 91.975,10.544L92.448,10.544C93.682,10.544 94.848,10.544 95.45,11.248C95.809,11.668 95.918,12.292 95.781,13.154Z" style="fill:white;fill-rule:nonzero;"/>
                </g>
                <g transform="matrix(2.93028,0,0,2.93028,894.736,4077.67)">
                    <path d="M115.434,13.075L112.161,13.075C111.88,13.075 111.641,13.279 111.599,13.556L111.454,14.472L111.224,14.14C110.515,13.111 108.935,12.767 107.357,12.767C103.738,12.767 100.648,15.508 100.046,19.353C99.734,21.271 100.177,23.105 101.265,24.384C102.265,25.56 103.691,26.05 105.39,26.05C108.306,26.05 109.923,24.175 109.923,24.175L109.777,25.085C109.722,25.433 109.99,25.745 110.341,25.745L113.29,25.745C113.757,25.745 114.155,25.405 114.228,24.942L115.999,13.733C116.053,13.388 115.785,13.075 115.434,13.075ZM110.869,19.449C110.555,21.32 109.068,22.576 107.174,22.576C106.225,22.576 105.463,22.271 104.975,21.693C104.491,21.119 104.309,20.302 104.461,19.392C104.758,17.537 106.266,16.24 108.131,16.24C109.061,16.24 109.817,16.549 110.315,17.132C110.816,17.721 111.014,18.543 110.869,19.449Z" style="fill:white;fill-rule:nonzero;"/>
                </g>
                <g transform="matrix(2.93028,0,0,2.93028,894.736,4077.67)">
                    <path d="M119.295,7.23L116.488,25.088C116.433,25.434 116.701,25.746 117.05,25.746L119.872,25.746C120.341,25.746 120.739,25.406 120.811,24.943L123.579,7.407C123.634,7.061 123.366,6.748 123.017,6.748L119.857,6.748C119.578,6.749 119.338,6.953 119.295,7.23Z" style="fill:white;fill-rule:nonzero;"/>
                </g>
            </g>
        </g>
    </g>
</svg>
