<?xml version="1.0" encoding="UTF-8"?>
<svg width="112px" height="28px" viewBox="0 0 112 28" version="1.1" xmlns="http://www.w3.org/2000/svg" xmlns:xlink="http://www.w3.org/1999/xlink">
    <title>logo_sumanti_color.79d9ff4f</title>
    <g id="Landing-Talentos" stroke="none" stroke-width="1" fill="none" fill-rule="evenodd">
        <g id="Desktop-Home-Developers" transform="translate(-925.000000, -6674.000000)" fill="#FF9D00" fill-rule="nonzero">
            <g id="Group-149" transform="translate(897.000000, 6640.000000)">
                <g id="logo_sumanti_color.79d9ff4f" transform="translate(28.000000, 34.000000)">
                    <g id="Grupo_155">
                        <path d="M55.2826818,6.55582941 C53.3908507,5.85258778 51.2931905,5.93293077 49.461749,6.77877836 C48.7686861,7.09025311 48.1385754,7.52411082 47.602196,8.05915875 C46.232973,5.8812512 42.6468574,5.39064887 39.4319586,7.43329689 C39.578248,6.68822326 39.1896847,6.60970396 38.6421111,6.62632483 C37.6591385,6.65498151 36.6692272,6.64810391 35.6833634,6.62632483 C35.2294613,6.6171547 35.0409619,6.80686191 34.9762013,7.24187028 C34.6870917,9.21287661 34.3736969,11.1810173 34.0649279,13.1497311 C33.7000715,15.4726414 33.3259637,17.7921129 32.9663113,20.1184621 C32.8633883,20.7827239 32.9293053,20.8514999 33.5965703,20.8549387 C34.5627746,20.8595238 35.5312918,20.8199776 36.494605,20.8692671 C37.0988441,20.9007894 37.3041119,20.6526226 37.3856408,20.10528 C37.5406035,19.0770784 37.6892059,18.0483037 37.8406993,17.0195289 C37.9921927,15.9907542 38.1483119,14.9528093 38.3165737,13.921742 C38.3981026,13.4213964 38.4802098,12.9199045 38.5744595,12.4224246 C38.6765661,11.7758686 39.0078623,11.1865686 39.5088617,10.7603372 C39.9762569,10.4036005 40.5441718,10.200068 41.1336577,10.1780335 C41.6400052,10.1577722 42.1462012,10.221701 42.6312455,10.3671676 C42.9359484,10.4466927 43.2045422,10.6260656 43.3933384,10.8761102 C43.6864342,11.3761259 43.8014913,11.9592702 43.7200323,12.5318931 C43.7125028,12.7513098 43.6932015,12.970174 43.6622103,13.1875579 C43.2811639,15.5276622 42.9018521,17.8689128 42.5057719,20.2067247 C42.4253994,20.6807061 42.5676414,20.8704133 43.0591277,20.8623895 C44.1261349,20.8448134 45.1929493,20.8448134 46.259571,20.8623895 C46.4294095,20.8917161 46.6036623,20.8454676 46.7359912,20.7359426 C46.8683201,20.6264176 46.9453129,20.464717 46.9464955,20.293841 C47.3419974,17.7147399 47.7797093,15.1385045 48.1283755,12.5519528 C48.2031552,11.7659233 48.6464833,11.060502 49.3252893,10.6474299 C49.9134419,10.2490935 50.6285633,10.078411 51.3351793,10.1677171 C52.6246081,10.2364932 53.2768394,10.7924327 53.3167365,12.0458758 C53.3220679,12.2850886 53.3056184,12.5242904 53.2675879,12.7605734 C52.8921309,15.2231373 52.51359,17.685128 52.1319654,20.1465456 C52.0301988,20.8096612 52.0654701,20.8514999 52.7680065,20.8549387 C53.6734978,20.8595238 54.5795673,20.8549387 55.4856368,20.8549387 C56.4610926,20.8549387 56.4512629,20.8549387 56.5998652,19.8806117 C56.9103689,17.8517188 57.2359063,15.8245454 57.5504576,13.7967989 C57.7776977,12.3398933 58.0893579,10.8858535 57.7100461,9.40774203 C57.4395625,8.11138927 56.5263111,7.03840922 55.2826818,6.55582941 L55.2826818,6.55582941 Z" id="Trazado_192"></path>
                        <path d="M104.404717,6.63492184 C103.12107,6.63492184 100.807615,6.63492184 99.9651497,6.63492184 C99.7546779,6.63492184 99.5603962,6.63205617 99.282851,6.63492184 C99.3308432,6.26467755 99.3684275,5.94200336 99.414685,5.64970524 C99.6459727,4.19337285 99.9003891,2.7410524 100.120112,1.28300061 C100.195859,0.778643069 99.8205949,0.62275074 99.4777109,0.638225346 C98.7092575,0.673759627 97.4302367,0.631347743 96.5444048,0.663443223 C96.1303999,0.678344695 95.7805772,0.725914781 95.6961572,1.29389014 C95.4295982,3.0860788 95.136441,4.78713922 94.8363453,6.6360681 C93.7649051,6.6360681 94.1505773,6.65612778 93.0878104,6.6274711 C92.5720388,6.61314276 92.3095273,6.76903509 92.258644,7.30892691 C92.1933052,8.00241852 92.0597366,8.68903253 91.9643304,9.37965848 C91.897257,10.0284457 92.2476579,10.2645767 92.770368,10.2645767 L94.2725815,10.2645767 C94.1615634,10.9649459 94.0412939,11.5718944 93.973064,12.184001 C93.7128369,13.8741738 93.5435647,15.5768791 93.4659657,17.2848897 C93.36169,18.9954992 94.4824324,20.5439911 96.1506375,20.9942102 C97.66876,21.4278533 99.2853885,21.3825852 100.776391,20.864682 C100.979927,20.7561857 101.125614,20.5651098 101.175362,20.341411 C101.323387,19.6811612 101.426888,19.0094486 101.518825,18.3388824 C101.58532,17.8517188 101.6177,17.5754685 101.645455,17.3347524 C101.317388,17.4185642 100.98526,17.4858977 100.650339,17.5364954 C98.7231348,17.874071 97.7465226,17.0711109 97.9263487,15.1459553 C97.9616201,14.7676871 98.0067212,14.3899921 98.0570263,14.0128702 L99.5025743,14.1160343 C99.5941432,14.1185183 99.6718776,14.0500009 99.6800876,13.9595688 L99.7228758,13.217934 L100.409222,13.2431518 L100.441024,14.0048464 C100.45116,14.1025051 100.528276,14.1801327 100.626632,14.1916879 L102.886313,14.363628 C102.995146,14.3727279 103.093088,14.2982411 103.112397,14.1916879 L103.26389,12.4625439 C103.275521,12.3976124 103.257553,12.3309087 103.214818,12.2803648 C103.172082,12.229821 103.108964,12.2006237 103.042432,12.2006219 L100.565919,12.1960368 C100.507718,12.1992937 100.453678,12.2269935 100.417357,12.2721879 C100.381035,12.3173823 100.365877,12.3757833 100.375685,12.432741 L100.38725,12.7038332 L99.7540997,12.6906511 L99.7691334,12.4247171 C99.780614,12.3700799 99.7677635,12.3131893 99.7338744,12.2686207 C99.6999852,12.2240521 99.6483502,12.1961362 99.5921983,12.1920249 L98.3339933,12.2006219 C98.438651,11.570175 98.5461997,10.9345698 98.6427623,10.2966722 L102.992127,10.2966722 C105.139633,10.2966722 105.615508,11.797709 105.37786,13.1164893 C104.938413,15.8308499 104.671854,17.5078387 104.221421,20.2199067 C104.117342,20.8429029 104.599577,20.881876 105.253543,20.9277267 C106.178693,20.9924908 106.389743,20.976443 107.232787,20.993637 C108.051545,21.0102579 108.331403,20.8600969 108.420449,20.2949872 C108.705511,18.5394791 109.021219,16.7272308 109.652634,12.449935 C110.070109,9.6020343 108.398477,6.64008004 104.404717,6.63492184 Z" id="Trazado_193"></path>
                        <path d="M75.4209006,6.6360681 C74.5368034,6.65555465 73.6498151,6.6360681 72.7651397,6.6360681 C71.8035612,6.6360681 71.8035612,6.6360681 71.6087013,7.54849674 C71.6017627,7.57486088 71.5508794,7.59434743 71.5173427,7.62071157 C69.621838,6.27653414 67.2217152,5.83680839 64.9666972,6.42056988 C61.2527952,7.27052696 58.9532174,10.4038482 59.044576,14.3149116 C59.0050556,16.2528379 59.7537867,18.1250365 61.1221177,19.5097942 C63.1418374,21.5048722 66.8730859,21.9524895 69.6468035,20.0605756 C69.4074208,20.7689687 69.6947957,20.9202759 70.2412129,20.9082401 C71.2461579,20.8841685 72.2539939,20.8916193 73.2589389,20.9082401 C73.6816172,20.9156909 73.9233128,20.8102343 73.9932773,20.3385454 C74.224565,18.7601355 74.496328,17.191469 74.7495881,15.6176442 C75.1867218,12.8826508 75.6868814,10.158547 76.0592546,7.41495662 C76.1280627,6.90314835 75.970787,6.62460543 75.4209006,6.6360681 Z M70.8564381,12.2212547 C70.7022463,13.4233068 70.5137468,14.6215381 70.2909397,15.8159484 C70.2197573,16.0988695 70.0573376,16.351022 69.8283643,16.5340848 C69.5444148,16.7590897 69.2275895,16.939976 68.8887581,17.0705378 C68.8598472,17.0825736 68.8309362,17.0946094 68.801447,17.1037795 C68.4893745,17.2137022 68.1648881,17.2853044 67.8352427,17.3169852 C67.6379872,17.3398399 67.4393955,17.3494141 67.2408334,17.3456419 C66.9259585,17.347233 66.6117915,17.3159197 66.30354,17.2522211 C65.758113,17.1471736 65.2470441,16.9110087 64.8152038,16.5644609 C64.7341665,16.4987283 64.6569472,16.4285027 64.5839161,16.3541208 C64.086769,15.8403956 63.7764987,15.1771147 63.7021318,14.4690845 C63.6874836,14.3517832 63.6776538,14.2319983 63.6726426,14.1097298 C63.5905355,11.8676313 64.9412556,10.3138662 67.1257677,10.1768873 C68.4262484,10.0119803 69.7273764,10.4771367 70.6222593,11.4268916 C70.8000927,11.6521921 70.8841007,11.9364557 70.8570163,12.2212547 L70.8564381,12.2212547 Z" id="Trazado_194"></path>
                        <path d="M85.803983,6.14374637 C84.4631253,6.20899718 83.1686388,6.65087689 82.0715779,7.41782229 C82.1363385,6.90601401 81.9599816,6.62632483 81.3493821,6.6343487 C80.3633256,6.64733973 79.3770764,6.64562033 78.3906344,6.6291905 C77.9731602,6.62173977 77.7742528,6.76731569 77.7175873,7.19544646 C77.5944266,8.12334971 77.4244301,9.04494848 77.2775625,9.96941292 C76.7386621,13.3743994 76.2119044,16.7816785 75.6527665,20.1832262 C75.5648771,20.7156673 75.7314043,20.8709865 76.2309857,20.8629626 C77.2370871,20.847488 78.2449232,20.8337328 79.2498682,20.8686939 C79.7777823,20.8870342 79.9911452,20.7042046 80.069783,20.1809336 C80.4687543,17.5410804 80.9209217,14.9081048 81.3071721,12.2682516 C81.375906,11.6922372 81.6942114,11.1744144 82.1791267,10.8497461 C83.0176722,10.2372888 84.0767654,10.0011407 85.0991337,10.1986663 C85.8763292,10.2478499 86.5274801,10.7996359 86.6973316,11.552981 C86.7713672,12.221237 86.750346,12.8964883 86.634884,13.5589484 C86.3295842,15.7895843 85.9687754,18.0127694 85.6085449,20.2353813 C85.527016,20.7380195 85.7241887,20.8709865 86.1867641,20.8658283 C87.2131032,20.8480611 88.2405987,20.8423298 89.2663596,20.8658283 C89.7509073,20.8778641 89.9307335,20.6893031 90.0012762,20.2239187 C90.3719147,17.7812234 90.8165653,15.3482714 91.1392116,12.8992717 C91.2751552,11.9310734 91.264241,10.9481661 91.1068313,9.98316812 C90.602046,7.10661076 88.5019538,6.02854653 85.803983,6.14374637 Z" id="Trazado_195"></path>
                        <path d="M32.7032216,6.6257517 C31.6780389,6.65612778 30.6511216,6.64982331 29.6253607,6.6257517 C29.4369279,6.59116034 29.2428043,6.6426259 29.0969546,6.76584138 C28.9511049,6.88905687 28.8690777,7.07088668 28.8736758,7.26078369 C28.4816431,9.85898919 28.0726494,12.4560484 27.6466946,15.0519614 C27.611852,15.4803237 27.4563879,15.8903877 27.1979965,16.2354822 C26.3785376,17.094718 25.170719,17.4755946 24.0010225,17.2436241 C23.1376338,17.1645944 22.4757122,16.4489844 22.4710544,15.5895607 C22.4398562,15.1326221 22.4592458,14.6736711 22.5288764,14.2209177 C22.8758079,11.9369804 23.2522286,9.65705513 23.6153503,7.3754104 C23.7211644,6.71172174 23.662186,6.63893377 22.9902953,6.63492184 C21.9847721,6.6291905 20.9780924,6.65211584 19.9725692,6.62517857 C19.4799264,6.61256963 19.2648289,6.76502316 19.1913951,7.27740456 C18.995957,8.65693706 18.7027998,10.0232875 18.5102528,11.4039662 C18.1781138,13.1231582 17.9818868,14.8654281 17.9233603,16.6148966 C17.9939031,20.0783427 20.6409906,21.6086094 23.5627323,21.1948069 C24.6645888,20.9566125 25.7457496,20.6325491 26.7961341,20.2256381 C26.6226684,20.791894 26.996198,20.8853148 27.5628528,20.8669745 C28.4880036,20.8365984 29.4166236,20.8153925 30.338305,20.873279 C31.0044136,20.9145446 31.2085249,20.6268316 31.2900539,20.036504 C31.4906959,18.5767328 31.7352826,17.1226929 31.9677268,15.6675068 C32.4106427,12.8941135 32.8524022,10.1207202 33.3091953,7.34961939 C33.3941936,6.84067679 33.2710329,6.60913083 32.7032216,6.6257517 Z" id="Trazado_196"></path>
                        <path d="M109.147271,0.00605902358 C108.331641,-0.0385298043 107.533462,0.25166575 106.940365,0.808429025 C106.347267,1.3651923 106.011562,2.13941512 106.012124,2.94909988 C106.004071,4.52292465 107.168605,5.61760976 108.857005,5.61875603 C109.682745,5.66321316 110.490017,5.36571328 111.085894,4.79735528 C111.681771,4.22899728 112.012712,3.44084867 111.999626,2.62126748 C111.992078,1.89253605 111.681916,1.19908932 111.142177,0.704225469 C110.602439,0.209361616 109.880827,-0.0431843543 109.147271,0.00605902358 L109.147271,0.00605902358 Z" id="Trazado_197"></path>
                        <path d="M14.8009766,10.5992867 C13.8736312,9.89616959 12.8184822,9.37644588 11.6930483,9.06844696 C10.5603169,8.72456682 9.42180325,8.39501502 8.31451346,7.98407825 C7.5192127,7.71684052 7.0027037,6.95511193 7.05341736,6.12425983 C7.02509993,5.2964021 7.54194715,4.54604766 8.33012538,4.27074588 C8.75471054,4.09234691 9.20232409,3.97351874 9.66002957,3.91769561 C11.6742995,3.69098031 13.7083361,4.11943406 15.4555207,5.1384701 C15.9134703,5.40039214 16.1574789,5.34995638 16.3910794,4.86967046 C16.7304941,4.17102064 17.1306218,3.50045437 17.5087772,2.82014483 C17.9042791,2.10888607 17.9135306,2.05845032 17.1716754,1.70368064 C13.8978105,0.0183725967 10.0754494,-0.282816683 6.57407363,0.868625039 C4.31497117,1.61369867 2.72833765,3.12161308 2.33457037,5.55743074 C1.79522975,8.22162232 3.31351384,10.8736894 5.89755715,11.7810881 C7.24827723,12.3318695 8.68052622,12.6877854 10.0694088,13.1485848 C11.1928887,13.5216948 11.7271632,14.1756402 11.7549178,15.1545523 C11.7780803,16.1717965 11.0975384,17.0732555 10.1064148,17.3381912 C8.38021681,17.8692308 6.52221624,17.7951597 4.84461997,17.1284243 C3.8872628,16.7680421 2.94998641,16.3572856 2.03678747,15.8979065 C1.83798945,15.8058057 1.6011252,15.8718759 1.47996237,16.0532257 C1.45856826,16.0853212 1.43833059,16.1185629 1.41867114,16.152951 C1.03646824,16.8315411 0.66698616,17.5158626 0.289987234,18.1978915 C-0.145990052,18.9882427 -0.138473203,19.0661889 0.645592049,19.4948928 C3.15812351,20.8359415 6.00349575,21.4413947 8.84994445,21.2406576 C10.7293635,21.1910835 12.556549,20.6169778 14.121569,19.5843016 C17.34225,17.3955045 17.347454,12.6144243 14.8009766,10.5992867 Z" id="Trazado_198"></path>
                    </g>
                    <g id="Grupo_156" transform="translate(58.196663, 23.628877)">
                        <path d="M3.5655433,0.393198217 L3.44989946,1.09757937 C3.43661454,1.1776683 3.36863656,1.23764136 3.28684164,1.24143589 L1.6782358,1.24143589 L1.59265935,1.77330384 L2.89249614,1.77330384 C2.92968234,1.77156029 2.96556982,1.78706673 2.9895914,1.81525723 C3.01361299,1.84344774 3.02303335,1.88111226 3.01507861,1.91716037 L2.89943477,2.62211465 C2.88515319,2.70412412 2.81452245,2.76478305 2.73059476,2.76711744 L1.43075797,2.76711744 L1.2087218,4.1477962 C1.19256568,4.2285583 1.12286268,4.28794725 1.03988179,4.29166062 L0.124560773,4.29166062 C0.0878074715,4.29206658 0.0527884466,4.27618783 0.0290714891,4.24835482 C0.00535453167,4.22052181 -0.00458142163,4.1836437 0.0019783,4.1477962 L0.605060938,0.392625083 C0.61827141,0.310021124 0.689532122,0.248821162 0.773900948,0.247622291 L3.44296083,0.247622291 C3.48060347,0.245490442 3.51704172,0.261149923 3.54120166,0.28984168 C3.56536161,0.318533437 3.5743901,0.356869135 3.5655433,0.393198217 L3.5655433,0.393198217 Z" id="Trazado_199"></path>
                        <path d="M6.78969363,2.74992344 C6.60138251,3.67132849 5.79451495,4.34069934 4.84629886,4.36214815 C4.4259183,4.38125149 4.01961388,4.20969099 3.74226965,3.895976 C3.46492541,3.58226101 3.34668765,3.16049117 3.4209885,2.74992344 C3.61010919,1.8306045 4.41685674,1.16402951 5.36322683,1.14514945 C5.78271231,1.12461257 6.1887918,1.29459718 6.46644366,1.6069553 C6.74409552,1.91931342 6.86307955,2.34002484 6.78969363,2.74992344 Z M5.74889905,2.74992344 C5.78613387,2.58912496 5.74690296,2.42028203 5.64245945,2.2918262 C5.53801594,2.16337038 5.37990069,2.08949581 5.21346806,2.09139297 C4.84111292,2.1110788 4.53284728,2.38514745 4.47276925,2.74992344 C4.43532872,2.90969237 4.47360363,3.07766131 4.57668805,3.20596977 C4.67977247,3.33427823 4.83636247,3.40885628 5.00183983,3.40845552 C5.37539055,3.38974493 5.6853591,3.11566002 5.74658617,2.74992344 L5.74889905,2.74992344 Z" id="Trazado_200"></path>
                        <path d="M6.97298912,4.15352754 L7.42053079,1.36924468 C7.43399333,1.28686802 7.50518787,1.22596656 7.5893708,1.22481502 L8.44629167,1.22481502 C8.48360376,1.22302546 8.51961925,1.23860584 8.54366745,1.26694001 C8.56771565,1.29527418 8.57703862,1.33311268 8.56887415,1.36924468 L8.54574538,1.51367434 C8.80770427,1.28119192 9.14535122,1.1499659 9.49691598,1.14400319 C10.2717297,1.14400319 10.5226769,1.54519668 10.4081895,2.25301664 L10.1028897,4.15352754 C10.0870124,4.23342024 10.0167734,4.29131831 9.93462793,4.29222586 L9.07712883,4.29222586 C9.0408123,4.29423523 9.00557557,4.27960643 8.98154396,4.25254306 C8.95751235,4.22547969 8.94734671,4.18897827 8.95396814,4.15352754 L9.22746583,2.44960145 C9.25345248,2.34739345 9.2279987,2.23903822 9.15913503,2.15872133 C9.09027137,2.07840444 8.98649032,2.03603082 8.8805343,2.04496915 C8.63770998,2.03522065 8.42751224,2.21075092 8.3959866,2.44960145 C8.37112318,2.60549378 8.12248892,4.15352754 8.12248892,4.15352754 C8.10661158,4.23342024 8.03637257,4.29131831 7.95422712,4.29222586 L7.09730625,4.29222586 C7.06086087,4.29437521 7.02543403,4.27983854 7.00118521,4.25278459 C6.9769364,4.22573063 6.96654431,4.18914797 6.97298912,4.15352754 L6.97298912,4.15352754 Z" id="Trazado_201"></path>
                        <path d="M14.3377672,4.28649452 C14.1310957,4.3447156 13.9164119,4.37005761 13.7017261,4.36157502 C13.1813288,4.36157502 13.065685,4.06641124 13.0413998,3.96783226 C12.7376565,4.21579572 12.3581916,4.35457098 11.9647556,4.36157502 C11.565071,4.35965365 11.1892057,4.17289205 10.9485038,3.85661527 C10.7078018,3.54033849 10.6298626,3.13081163 10.7377744,2.7493503 C10.8524987,1.86752552 11.5859751,1.19256845 12.4816836,1.14457632 C12.7770108,1.14057972 13.0652775,1.2341431 13.3010202,1.41051029 L13.464078,0.39377135 C13.4773259,0.310956388 13.5489077,0.249690438 13.6334962,0.248768558 L14.4904171,0.248768558 C14.527681,0.247354012 14.563499,0.263153135 14.5873834,0.291539904 C14.6112678,0.319926673 14.6205165,0.357689506 14.6124214,0.39377135 L14.1700837,3.14481246 C14.1267172,3.41705091 14.3088563,3.37062709 14.4077318,3.37062709 C14.5233756,3.36432262 14.53494,3.41647777 14.5332053,3.49728961 C14.5274231,3.5672119 14.500825,3.95579646 14.4933082,4.07042317 C14.5017731,4.17046553 14.4359621,4.26188758 14.3377672,4.28649452 L14.3377672,4.28649452 Z M13.0853444,2.75565477 C13.1322822,2.59498188 13.1032551,2.42188179 13.0064037,2.28489853 C12.9095522,2.14791527 12.7553051,2.06179915 12.5869195,2.05070049 C12.214954,2.0933509 11.9228449,2.38646536 11.8843831,2.75565477 C11.8219354,3.14251993 12.0283597,3.45430459 12.3608357,3.45430459 C12.7376004,3.41810127 13.0387502,3.12793149 13.0859226,2.75565477 L13.0853444,2.75565477 Z" id="Trazado_202"></path>
                        <path d="M18.2580935,2.74992344 C18.069586,3.67121259 17.2628343,4.34048729 16.3146987,4.36214815 C15.8943182,4.38125149 15.4880137,4.20969099 15.2106695,3.895976 C14.9333253,3.58226101 14.8150875,3.16049117 14.8893884,2.74992344 C15.078509,1.8306045 15.8852566,1.16402951 16.8316267,1.14514945 C17.2511122,1.12461257 17.6571917,1.29459718 17.9348435,1.6069553 C18.2124954,1.91931342 18.3314794,2.34002484 18.2580935,2.74992344 Z M17.2172989,2.74992344 C17.2547464,2.58919614 17.2156767,2.42032522 17.1113156,2.29183195 C17.0069544,2.16333869 16.8488559,2.08944883 16.6824461,2.09139297 C16.310091,2.1110788 16.0018253,2.38514745 15.9417473,2.74992344 C15.9040712,2.90971902 15.9422554,3.07781791 16.0453895,3.20618813 C16.1485235,3.33455835 16.3052616,3.40907793 16.4708179,3.40845779 C16.8440143,3.38943522 17.1534798,3.11536961 17.2144078,2.74992344 L17.2172989,2.74992344 Z" id="Trazado_203"></path>
                        <path d="M21.4949646,3.10813191 C21.5556816,3.3858703 21.8125578,3.57756469 22.0986255,3.5586149 C22.3732182,3.57182051 22.6470613,3.52036187 22.8977244,3.4084539 C22.9780969,3.37922409 23.0596258,3.37922409 23.0925843,3.46576726 C23.1064616,3.52308062 23.1689093,3.82397574 23.186834,3.8933249 C23.2042383,3.96929287 23.1679389,4.04736734 23.0983665,4.08360524 C22.708732,4.2771612 22.2770041,4.37262873 21.8413179,4.36157502 C21.4109045,4.41341873 20.9823181,4.25198627 20.6952613,3.92989834 C20.4082046,3.60781042 20.2994484,3.16632542 20.4044432,2.7493503 C20.5364351,1.81140731 21.3574376,1.12092606 22.3125666,1.14457632 C23.2273094,1.14457632 23.6546134,1.86042014 23.5117932,2.7493503 C23.4701615,3.00955294 23.4250604,3.10755878 23.1099309,3.10755878 L21.4949646,3.10813191 Z M21.5649292,2.52984015 L22.5033789,2.52984015 C22.5612009,2.177363 22.4582778,1.94123198 22.1842019,1.94123198 C21.8550405,1.94914248 21.5863839,2.20474461 21.5649292,2.53041328 L21.5649292,2.52984015 Z" id="Trazado_204"></path>
                        <path d="M27.4616087,4.28649452 C27.2549429,4.3447442 27.0402545,4.37008676 26.8255676,4.36157502 C26.3051703,4.36157502 26.1895264,4.06641124 26.1658194,3.96783226 C25.8618758,4.2158376 25.4822154,4.35460982 25.088597,4.36157502 C24.688898,4.35959757 24.3130255,4.17285221 24.0722424,3.85661784 C23.8314593,3.54038348 23.7533507,3.13088919 23.8610377,2.7493503 C23.9759814,1.86763751 24.7093347,1.19279368 25.6049468,1.14457632 C25.9002741,1.14057972 26.1885408,1.2341431 26.4242834,1.41051029 L26.5879195,0.39377135 C26.6011673,0.310956388 26.6727492,0.249690438 26.7573377,0.248768558 L27.6142586,0.248768558 C27.6515981,0.247117908 27.6875719,0.262851606 27.711511,0.291303365 C27.7354501,0.319755123 27.7446058,0.357658208 27.7362628,0.39377135 L27.2945033,3.14481246 C27.2511369,3.41705091 27.4332759,3.37062709 27.5321514,3.37062709 C27.6477953,3.36432262 27.6587814,3.41647777 27.657625,3.49728961 C27.652421,3.5672119 27.6252447,3.95579646 27.6183061,4.07042317 C27.6264129,4.17073918 27.5601228,4.26214708 27.4616087,4.28649452 Z M26.2091859,2.75565477 C26.2563398,2.59506045 26.2274795,2.42193475 26.1307125,2.28491204 C26.0339455,2.14788932 25.879712,2.06175302 25.7113391,2.05070049 C25.3393737,2.0933509 25.0472646,2.38646536 25.0088028,2.75565477 C24.9463551,3.14251993 25.1533576,3.45430459 25.4852554,3.45430459 C25.8617957,3.4178491 26.1626431,3.12773943 26.2097641,2.75565477 L26.2091859,2.75565477 Z" id="Trazado_205"></path>
                        <path d="M31.540367,1.36351334 L31.0928253,4.14836934 C31.0791119,4.23051864 31.0079831,4.2911224 30.9239853,4.29222586 L30.0676427,4.29222586 C30.0304565,4.29396941 29.994569,4.27846298 29.9705474,4.25027247 C29.9465258,4.22208196 29.9371055,4.18441744 29.9450602,4.14836934 L29.9705018,3.99247701 C29.7091818,4.22229946 29.3743512,4.35322681 29.0251134,4.36214815 C28.2502997,4.36214815 27.9935704,3.96095466 28.1080578,3.25256157 L28.4116228,1.36122081 C28.4291868,1.28256682 28.4980922,1.22557218 28.5793064,1.22252249 L29.4420095,1.22252249 C29.4773924,1.22173836 29.5111895,1.23705714 29.5337356,1.26409806 C29.5562818,1.29113899 29.5650944,1.32692447 29.5576533,1.36122081 L29.2864685,3.04795289 C29.2593718,3.15204499 29.2851994,3.26269457 29.3556672,3.34441226 C29.4261351,3.42612996 29.532385,3.46864323 29.6403387,3.45831652 C29.8822847,3.46261847 30.0887732,3.2858448 30.1196824,3.04795289 C30.1439676,2.8977919 30.3908672,1.36122081 30.3908672,1.36122081 C30.4066995,1.28153623 30.4766236,1.22369906 30.5585508,1.22252249 L31.4154717,1.22252249 C31.4525019,1.22001937 31.488593,1.2347693 31.5130823,1.26241464 C31.5375717,1.29005999 31.5476601,1.32744073 31.540367,1.36351334 L31.540367,1.36351334 Z" id="Trazado_206"></path>
                        <path d="M33.8121903,3.15455573 C33.8613389,3.10240058 33.8867806,3.09036477 34.009363,3.09036477 L34.7263549,3.09036477 C34.8720661,3.09036477 34.9067593,3.12475279 34.8344819,3.28637645 C34.5304454,3.93677389 33.8755993,4.35536661 33.1524422,4.36157502 C32.7321295,4.38045692 32.3259677,4.2088322 32.0486749,3.89517538 C31.7713821,3.58151856 31.6530614,3.15988036 31.7271318,2.7493503 C31.9162525,1.83003136 32.7230001,1.16345638 33.6693701,1.14457632 C34.3276822,1.12203562 34.9010623,1.5862143 35.0102605,2.23009129 C35.0374368,2.38655676 34.9836624,2.43240744 34.855876,2.43240744 L34.0868444,2.43240744 C34.0285081,2.44216254 33.9709174,2.41149746 33.9469154,2.35790008 C33.8708221,2.19157436 33.7014718,2.08674609 33.5172985,2.0919661 C33.1426867,2.10919836 32.8312468,2.38373171 32.7702393,2.75049657 C32.7327664,2.9113229 32.7719063,3.08029795 32.8764006,3.20881613 C32.9808948,3.33733431 33.1391596,3.41114885 33.3056703,3.40902704 C33.5042353,3.40288404 33.689796,3.30965994 33.8121903,3.15455573 L33.8121903,3.15455573 Z" id="Trazado_207"></path>
                        <path d="M38.3419596,2.28224645 L38.0418638,4.1477962 C38.0281504,4.22994551 37.9570216,4.29054927 37.8730238,4.29165273 L37.0161029,4.29165273 C36.9789905,4.29316263 36.9432564,4.27759066 36.919289,4.24946381 C36.8953217,4.22133695 36.8858105,4.18381134 36.8935205,4.1477962 L36.9126017,4.03316949 C36.6280873,4.25313939 36.2759381,4.36949003 35.9151736,4.36272129 C35.6838848,4.38400313 35.455975,4.29616606 35.2999397,4.12560842 C35.1439043,3.95505078 35.0779345,3.72165684 35.1218568,3.4955702 C35.2116039,2.94207723 35.6592461,2.51378507 36.2204733,2.44444325 C36.517678,2.40375076 36.934574,2.38712989 37.1751132,2.37509408 C37.1970856,2.20315402 37.1675964,1.98822893 36.7888628,1.98822893 C36.4853585,2.0013052 36.1866045,2.06767165 35.9065003,2.18424061 C35.8388486,2.20716595 35.7839178,2.18424061 35.7694623,2.13208545 C35.7550068,2.0799303 35.6468799,1.65867713 35.6376283,1.61168018 C35.6224638,1.54818074 35.6549965,1.48296563 35.7151097,1.45636098 C36.1350825,1.25751216 36.5935108,1.15114748 37.0588912,1.14457632 C37.7463938,1.14457632 38.3887954,1.4311431 38.3552586,2.14412126 C38.3536881,2.19038979 38.3492467,2.23651869 38.3419596,2.28224645 Z M37.0322931,3.28694959 L37.090115,2.93504558 C36.8717524,2.91967695 36.6530035,2.95909966 36.4540739,3.04967229 C36.2054396,3.21702729 36.2164258,3.58727157 36.5893772,3.58727157 C36.7889308,3.59933644 36.9713115,3.47567202 37.0322931,3.28694959 Z" id="Trazado_208"></path>
                        <path d="M40.7606506,4.28649452 C40.476176,4.34027892 40.1869465,4.36543352 39.8973693,4.36157502 C39.3497957,4.36157502 38.9600759,4.10137238 39.0653118,3.44857325 L39.2630628,2.21805549 L38.7906577,2.21805549 C38.7534201,2.21960904 38.7175599,2.20396269 38.6935666,2.17569313 C38.6695732,2.14742358 38.6601581,2.10972546 38.6680752,2.07362583 L38.7837191,1.36294021 C38.7995514,1.28325563 38.8694754,1.22541846 38.9514026,1.22424189 L39.4232295,1.22424189 L39.5255743,0.588636762 C39.5435579,0.510003688 39.6125562,0.453128406 39.6938361,0.449909739 L40.5565392,0.449909739 C40.5919221,0.44915431 40.6257192,0.464473091 40.6482653,0.491514018 C40.6708115,0.518554944 40.6796241,0.554340425 40.672183,0.588636762 C40.672183,0.588636762 40.6288166,0.859728939 40.5704164,1.22424189 L41.0832969,1.22424189 C41.119644,1.22227589 41.1549029,1.23689179 41.1790166,1.26392065 C41.2031302,1.29094951 41.2134513,1.32742392 41.2070358,1.36294021 L41.091392,2.07362583 C41.0779294,2.15600248 41.0067349,2.21690395 40.9225519,2.21805549 L40.4096715,2.21805549 C40.3518496,2.5819953 40.3038574,2.87658595 40.2940277,2.94593512 C40.2223285,3.3912599 40.3148436,3.43137925 40.8323497,3.36833455 C40.9479936,3.35056741 40.9531976,3.41418524 40.9514629,3.49499707 C40.9514629,3.5586149 40.9289124,3.92828605 40.9179262,4.06813064 C40.90694,4.20797523 40.8572132,4.26356918 40.7606506,4.28649452 Z" id="Trazado_209"></path>
                        <path d="M42.972339,1.36924468 L42.5259538,4.14836934 C42.5122404,4.23051864 42.4411116,4.2911224 42.3571138,4.29224365 L41.5001929,4.29224365 C41.463369,4.29284988 41.4282135,4.27702989 41.404449,4.24914115 C41.3806846,4.2212524 41.3708299,4.18425066 41.3776105,4.14836934 L41.8239957,1.36924468 C41.8399174,1.28825604 41.9096783,1.22858094 41.9928357,1.22481502 L42.8497566,1.22481502 C42.8870687,1.22302546 42.9230842,1.23860584 42.9471324,1.26694001 C42.9711805,1.29527418 42.9805035,1.33311268 42.972339,1.36924468 L42.972339,1.36924468 Z M43.1695118,0.144458249 L43.0729492,0.745675359 C43.0592357,0.827824665 42.9881069,0.888428427 42.9041092,0.889531884 L42.0471883,0.889531884 C42.0102932,0.890370433 41.974998,0.874610439 41.9511848,0.846664508 C41.9273716,0.818718577 41.9176,0.781590381 41.9246058,0.745675359 L42.0211684,0.144458249 C42.0368971,0.0633587868 42.1067687,0.00358900987 42.1900085,2.85909204e-05 L43.0469293,2.85909204e-05 C43.0845208,-0.000777107502 43.1204244,0.0154822878 43.1444179,0.0441775265 C43.1684113,0.0728727651 43.177866,0.110860044 43.17009,0.147323917 L43.1695118,0.144458249 Z" id="Trazado_210"></path>
                        <path d="M46.6185894,1.42713117 C46.5434209,1.56582949 45.240693,4.0503635 45.1788236,4.14836934 C45.1169541,4.24637517 45.0735877,4.29222586 44.96893,4.29222586 L44.0593912,4.29222586 C43.9541553,4.29222586 43.9264007,4.25210651 43.8963334,4.14836934 C43.866266,4.04463216 43.3614806,1.56582949 43.3314132,1.42713117 C43.3013458,1.28843285 43.3695756,1.22481502 43.4684511,1.22481502 L44.325372,1.22481502 C44.4988378,1.22481502 44.5213883,1.27639704 44.5566597,1.42713117 C44.5728498,1.507943 44.7110442,3.0737439 44.7110442,3.0737439 C44.7110442,3.0737439 45.3534458,1.50851613 45.3956558,1.42713117 C45.4777629,1.27697017 45.5153471,1.22481502 45.6899693,1.22481502 L46.5468902,1.22481502 C46.6451875,1.22481502 46.6850846,1.29645672 46.6185894,1.42713117 Z" id="Trazado_211"></path>
                        <path d="M49.9103914,2.74992344 C49.7220803,3.67132849 48.9152127,4.34069934 47.9669966,4.36214815 C47.546684,4.38103005 47.1405221,4.20940533 46.8632293,3.89574851 C46.5859365,3.58209169 46.4676158,3.16045349 46.5416862,2.74992344 C46.7308069,1.8306045 47.5375545,1.16402951 48.4839246,1.14514945 C48.9034101,1.12461257 49.3094895,1.29459718 49.5871414,1.6069553 C49.8647933,1.91931342 49.9837773,2.34002484 49.9103914,2.74992344 Z M48.8695968,2.74992344 C48.9070443,2.58919614 48.8679746,2.42032522 48.7636135,2.29183195 C48.6592523,2.16333869 48.5011538,2.08944883 48.334744,2.09139297 C47.9623001,2.11086604 47.6539195,2.38503695 47.5940452,2.74992344 C47.5563691,2.90971902 47.5945533,3.07781791 47.6976874,3.20618813 C47.8008214,3.33455835 47.9575595,3.40907793 48.1231158,3.40845779 C48.4965335,3.38969648 48.8063081,3.11557026 48.8672839,2.74992344 L48.8695968,2.74992344 Z" id="Trazado_212"></path>
                    </g>
                </g>
            </g>
        </g>
    </g>
</svg>