<?xml version="1.0" encoding="UTF-8" standalone="no"?>
<!DOCTYPE svg PUBLIC "-//W3C//DTD SVG 1.1//EN" "http://www.w3.org/Graphics/SVG/1.1/DTD/svg11.dtd">
<svg width="100%" height="100%" viewBox="0 0 341 86" version="1.1" xmlns="http://www.w3.org/2000/svg" xmlns:xlink="http://www.w3.org/1999/xlink" xml:space="preserve" xmlns:serif="http://www.serif.com/" style="fill-rule:evenodd;clip-rule:evenodd;stroke-linejoin:round;stroke-miterlimit:2;">
    <g transform="matrix(1,0,0,1,-1862.83,-4079.75)">
        <g transform="matrix(1,0,0,1,-3.0124,5.98286)">
            <g transform="matrix(1.22843,0,0,1.22843,-571.21,-1178.15)">
                <g id="path4366" transform="matrix(0.345439,0,0,0.345439,1889.2,4240.57)">
                    <path d="M274.098,164.34L297.39,164.34L316.048,235.417L334.021,167.689L353.021,167.689L371.336,235.417L389.651,164.34L412.931,164.34L382.801,266.49L361.751,266.49L343.265,197.46L325.292,266.49L304.238,266.49L274.098,164.34Z" style="fill:white;fill-rule:nonzero;"/>
                </g>
                <g id="path4368" transform="matrix(0.345439,0,0,0.345439,1889.2,4240.57)">
                    <path d="M424.08,223.51C425.196,239.884 439.709,249.001 453.664,248.815C465.572,248.815 473.573,243.419 478.225,235.046L503.345,235.046C498.507,246.396 491.25,254.955 482.691,260.723C474.132,266.677 464.085,269.655 453.479,269.655C422.034,269.655 399.52,244.164 399.52,215.696C399.52,186.67 422.22,161.179 453.107,161.179C468.364,161.179 481.761,166.947 491.251,176.808C503.717,189.646 508.369,205.648 506.322,223.511L424.077,223.511L424.08,223.51ZM482.31,204.9C481.379,195.225 471.146,181.642 453.284,181.828C435.236,181.828 425.374,194.852 424.444,204.9L482.318,204.9L482.31,204.9Z" style="fill:white;fill-rule:nonzero;"/>
                </g>
                <g id="path4370" transform="matrix(0.345439,0,0,0.345439,1889.2,4240.57)">
                    <path d="M502.78,128.8L527.155,128.8L527.155,176.991C537.203,164.525 551.902,161.176 561.206,161.176C585.394,161.176 612.187,178.852 612.187,214.949C612.187,249.557 587.999,269.653 560.088,269.653C544.086,269.653 531.62,261.838 526.225,251.79L526.225,266.489L502.775,266.489L502.775,128.799L502.78,128.8ZM587.81,215.13C587.81,198.384 574.97,183.871 557.109,183.871C538.13,183.871 526.222,198.756 526.222,215.316C526.222,232.434 538.13,246.947 556.55,246.947C576.459,246.947 587.81,231.132 587.81,215.316L587.81,215.129L587.81,215.13Z" style="fill:white;fill-rule:nonzero;"/>
                </g>
                <g id="g4374" transform="matrix(0.345439,0,0,0.345439,1997.31,4205.91)">
                    <path id="path4376" d="M304.2,264.52L327.086,264.52L327.086,279.405C334.342,269.172 346.251,261.357 363.183,261.357C398.908,261.357 413.979,291.686 413.979,316.433C413.979,345.458 393.326,369.833 363.369,369.833C343.46,369.833 332.668,359.6 328.575,353.087L328.575,402.395L304.195,402.395L304.195,264.535L304.2,264.52ZM389.61,315.5C389.61,300.801 379.004,284.055 358.351,284.055C349.42,284.055 341.791,287.59 336.209,293.359C330.813,298.941 327.464,306.941 327.464,315.873C327.464,324.618 330.813,332.433 336.395,338.015C341.977,343.597 349.791,347.132 358.537,347.132C377.144,347.132 389.61,332.433 389.61,315.687L389.61,315.5Z" style="fill:white;fill-rule:nonzero;"/>
                    <path id="path4378" d="M519.29,366.67L494.916,366.67L494.916,351.971C488.404,363.879 474.821,369.833 460.494,369.833C427.746,369.833 408.581,344.342 408.581,315.502C408.581,283.313 431.839,261.357 460.494,261.357C479.1,261.357 490.451,271.218 494.916,279.405L494.916,264.515L519.29,264.515L519.29,366.67ZM432.95,316.06C432.95,328.712 442.068,347.132 464.023,347.132C477.606,347.132 486.537,340.062 491.189,330.758C493.608,326.293 494.724,321.455 495.096,316.432C495.282,311.594 494.352,306.57 492.305,302.105C488.026,292.429 478.536,284.056 463.837,284.056C444.114,284.056 432.95,300.058 432.95,315.873L432.95,316.064L432.95,316.06Z" style="fill:white;fill-rule:nonzero;"/>
                    <path id="path4380" d="M548.87,362.76L510.354,264.517L536.404,264.517L561.337,332.431L585.898,264.517L611.947,264.517L558.175,402.397L532.126,402.397L548.876,362.757L548.87,362.76Z" style="fill:white;fill-rule:nonzero;"/>
                </g>
            </g>
            <g transform="matrix(0.735769,0,0,0.735769,510.213,1069.04)">
                <g id="path4384" transform="matrix(0.561425,0,0,0.561425,1875.65,3971.93)">
                    <path d="M691.17,200.12C690.004,198.953 688.095,198.953 686.928,200.12L624.092,262.958C622.925,264.125 621.969,265.079 621.969,265.079C621.967,265.079 621.967,266.429 621.967,268.079L621.967,340.382C621.967,342.032 623.317,343.382 624.967,343.382L697.268,343.382C698.918,343.382 701.223,342.427 702.389,341.261L765.227,278.422C766.393,277.255 766.393,275.346 765.227,274.179L691.167,200.119L691.17,200.12Z" style="fill:white;fill-rule:nonzero;"/>
                </g>
                <g id="path4388" transform="matrix(0.561425,0,0,0.561425,1875.65,3971.93)">
                    <path d="M632.03,270.59L638.042,270.59L638.042,276.358C640.531,272.411 644.781,269.619 650.671,269.619C662.025,269.619 667.366,279.09 667.366,287.287C667.366,296.637 660.628,304.591 650.731,304.591C643.87,304.591 639.801,300.826 638.344,298.155L638.344,315.64L632.03,315.64L632.03,270.59ZM660.99,287.04C660.99,281.637 657.166,275.504 649.455,275.504C646.176,275.504 643.322,276.779 641.259,278.904C639.255,280.968 638.041,283.883 638.041,287.161C638.041,290.44 639.255,293.294 641.319,295.358C643.383,297.421 646.298,298.697 649.515,298.697C656.194,298.697 660.99,293.536 660.99,287.1L660.99,287.04Z" style="fill:rgb(78,115,222);fill-rule:nonzero;"/>
                </g>
                <g id="path4390" transform="matrix(0.561425,0,0,0.561425,1875.65,3971.93)">
                    <path d="M669.25,258.69L675.564,258.69L675.564,303.619L669.25,303.619L669.25,258.686L669.25,258.69Z" style="fill:rgb(78,115,222);fill-rule:nonzero;"/>
                </g>
                <g id="path4392" transform="matrix(0.561425,0,0,0.561425,1875.65,3971.93)">
                    <path d="M709.68,303.62L703.729,303.62L703.729,298.52C702.151,301.919 698.448,304.652 692.558,304.591C681.933,304.53 679.201,296.82 679.201,289.958L679.201,270.588L685.515,270.588L685.515,288.499C685.515,294.449 687.823,298.699 694.319,298.699C700.512,298.638 703.366,294.692 703.366,289.046L703.366,270.586L709.68,270.586L709.68,303.62Z" style="fill:rgb(78,115,222);fill-rule:nonzero;"/>
                </g>
                <g id="path4394" transform="matrix(0.561425,0,0,0.561425,1875.65,3971.93)">
                    <path d="M727.96,279.21C727.96,276.66 726.382,274.717 723.163,274.778C720.067,274.778 718.367,276.842 718.428,279.028C718.55,281.639 720.917,282.853 724.439,283.824C729.478,285.22 735.003,286.678 735.185,293.781C735.306,300.217 729.964,304.589 723.407,304.589C718.185,304.589 711.689,301.613 711.386,294.085L717.639,294.085C717.883,298.092 721.1,299.428 723.468,299.428C726.504,299.428 728.871,297.303 728.871,294.51C728.81,291.232 726.322,290.139 720.432,288.196C715.819,286.8 712.175,284.614 712.115,279.635C712.115,273.382 717.216,269.617 723.225,269.617C727.78,269.617 733.729,271.863 734.215,279.21L727.96,279.21Z" style="fill:rgb(78,115,222);fill-rule:nonzero;"/>
                </g>
            </g>
        </g>
    </g>
</svg>
