<svg width="54" height="57" viewBox="0 0 54 57" fill="none" xmlns="http://www.w3.org/2000/svg">
<path d="M27.3424 10.0993C29.1134 6.17478 34.6863 6.17479 36.4573 10.0993L47.7121 35.0401C49.2055 38.3494 46.7852 42.0967 43.1547 42.0967H20.645C17.0144 42.0967 14.5942 38.3494 16.0875 35.0401L27.3424 10.0993Z" fill="#4E73DE"/>
<path d="M14.4392 10.0993C16.2102 6.17481 21.7831 6.17482 23.5541 10.0993L34.809 35.0402C36.3023 38.3494 33.8821 42.0968 30.2515 42.0968H7.74183C4.11127 42.0968 1.69106 38.3494 3.18438 35.0402L14.4392 10.0993Z" fill="#BBBBBB"/>
<path d="M15.8341 36.9816L25.4839 14.1935L35.4839 36.4516C37.8609 40.4147 34.5162 42.2581 32.2581 42.2581H18.0646C14.8954 42.2581 15.2839 38.6329 15.8341 36.9816Z" fill="#DCE4F9"/>
</svg>
